<svg width="64" height="64" viewBox="0 0 64 64" fill="none" xmlns="http://www.w3.org/2000/svg">
<path fill-rule="evenodd" clip-rule="evenodd" d="M12.9157 21.0035C13.466 20.957 13.9499 21.3653 13.9964 21.9157L16.879 55.9999L46.121 55.9999L49.0036 21.9157C49.0501 21.3653 49.534 20.957 50.0843 21.0035C50.6346 21.05 51.043 21.5339 50.9964 22.0842L48.1139 56.1685C48.0263 57.204 47.1602 57.9999 46.121 57.9999H16.879C15.8398 57.9999 14.9737 57.204 14.8861 56.1685L12.0036 22.0842C11.957 21.5339 12.3654 21.05 12.9157 21.0035Z" fill="black"/>
<path fill-rule="evenodd" clip-rule="evenodd" d="M10 16C10 14.8954 10.8954 14 12 14H51.5C52.6046 14 53.5 14.8954 53.5 16V20.5C53.5 21.6046 52.6046 22.5 51.5 22.5H12C10.8954 22.5 10 21.6046 10 20.5V16ZM51.5 16H12V20.5H51.5V16Z" fill="black"/>
<path fill-rule="evenodd" clip-rule="evenodd" d="M28.1524 7.30224C28.7013 6.38748 29.8715 6.06451 30.8119 6.56827L43.9722 13.6185C44.459 13.8793 44.6423 14.4853 44.3815 14.9722C44.1207 15.459 43.5146 15.6422 43.0278 15.3814L29.8674 8.33123L25.8575 15.0144C25.5733 15.488 24.9591 15.6416 24.4855 15.3574C24.0119 15.0733 23.8584 14.459 24.1425 13.9855L28.1524 7.30224Z" fill="black"/>
<path fill-rule="evenodd" clip-rule="evenodd" d="M17 8.74654C17 7.46704 18.1848 6.5166 19.4339 6.79417L27.2169 8.52374C27.7561 8.64354 28.096 9.17772 27.9762 9.71685C27.8564 10.256 27.3222 10.5959 26.7831 10.4761L19 8.74654V14.9999C19 15.5522 18.5523 15.9999 18 15.9999C17.4477 15.9999 17 15.5522 17 14.9999V8.74654Z" fill="black"/>
</svg>
