<?xml version="1.0" standalone="no"?>
<!DOCTYPE svg PUBLIC "-//W3C//DTD SVG 20010904//EN"
 "http://www.w3.org/TR/2001/REC-SVG-20010904/DTD/svg10.dtd">
<svg version="1.0" xmlns="http://www.w3.org/2000/svg"
 width="936.000000pt" height="877.000000pt" viewBox="0 0 936.000000 877.000000"
 preserveAspectRatio="xMidYMid meet">

<g transform="translate(0.000000,877.000000) scale(0.100000,-0.100000)"
fill="#000000" stroke="none">
<path d="M735 8100 c-48 -15 -115 -79 -141 -134 -59 -126 0 -267 136 -328 35
-16 69 -29 285 -113 66 -26 194 -76 285 -112 91 -36 224 -88 295 -116 72 -28
136 -56 143 -62 12 -10 30 -102 137 -685 26 -140 66 -361 90 -490 24 -129 64
-350 90 -490 26 -140 66 -361 90 -490 24 -129 64 -350 90 -490 26 -140 67
-363 91 -495 24 -132 58 -316 75 -410 71 -393 77 -411 131 -461 66 -62 98 -74
191 -74 47 0 88 -4 91 -9 6 -9 -4 -37 -210 -608 -58 -160 -66 -196 -58 -241 9
-49 26 -81 61 -114 48 -46 92 -58 207 -58 58 0 107 -4 110 -8 2 -4 -11 -28
-31 -52 -45 -58 -95 -158 -118 -240 -14 -48 -19 -99 -19 -200 -1 -122 2 -143
27 -213 84 -244 253 -411 493 -489 99 -33 318 -33 416 -1 397 130 613 523 502
912 -19 68 -77 184 -115 232 -16 20 -29 42 -29 48 0 12 1571 17 1583 5 3 -4
-11 -29 -32 -58 -87 -115 -130 -241 -138 -401 -5 -93 -2 -124 16 -195 67 -262
251 -459 509 -543 98 -32 317 -32 415 1 241 78 413 246 494 482 38 110 44 294
13 406 -29 102 -71 191 -121 254 -27 34 -35 52 -27 55 7 2 74 5 149 7 128 3
138 5 176 30 71 47 102 122 88 214 -8 59 -80 136 -140 153 -28 8 -615 11
-2011 11 -1084 0 -1973 3 -1976 6 -3 3 5 33 17 67 23 60 73 199 151 417 20 58
41 111 47 117 7 10 399 13 1896 13 l1886 0 50 29 c94 54 85 32 377 951 16 52
36 113 44 135 7 22 47 148 89 280 42 132 83 258 90 280 8 22 48 148 90 280 42
132 82 258 90 280 7 22 41 128 75 235 34 107 68 213 75 235 8 22 48 148 90
280 42 132 90 280 106 329 36 112 37 166 3 234 -29 58 -70 97 -129 123 -44 19
9 16 -1805 94 -195 8 -508 22 -695 30 -187 8 -500 22 -695 30 -791 34 -1079
47 -1365 60 -364 17 -397 12 -471 -67 -50 -53 -65 -92 -65 -168 0 -81 21 -131
77 -180 76 -66 52 -63 804 -95 206 -8 528 -22 715 -30 671 -29 1055 -46 1385
-60 184 -8 502 -22 705 -30 626 -27 977 -44 982 -48 2 -3 -1 -15 -6 -28 -6
-13 -38 -112 -71 -219 -34 -107 -68 -213 -75 -235 -8 -22 -48 -148 -90 -280
-42 -132 -83 -258 -90 -280 -8 -22 -48 -148 -90 -280 -42 -132 -82 -258 -90
-280 -7 -22 -41 -128 -75 -235 -34 -107 -68 -213 -75 -235 -8 -22 -48 -148
-90 -280 -42 -132 -86 -268 -97 -302 l-21 -63 -1942 0 -1942 0 -17 83 c-9 45
-30 156 -46 247 -17 91 -37 201 -45 245 -8 44 -29 154 -45 245 -17 91 -37 201
-45 245 -8 44 -29 154 -45 245 -17 91 -37 201 -45 245 -8 44 -29 154 -45 245
-17 91 -37 201 -45 245 -8 44 -29 154 -45 245 -17 91 -37 201 -45 245 -8 44
-29 154 -45 245 -17 91 -37 201 -45 245 -8 44 -29 154 -45 245 -85 465 -107
576 -125 614 -29 60 -93 108 -202 150 -104 41 -388 152 -613 241 -474 187
-474 187 -540 191 -36 2 -79 -1 -95 -6z m2872 -6172 c78 -29 152 -103 182
-183 32 -85 27 -187 -13 -268 -32 -67 -113 -137 -185 -162 -57 -19 -156 -19
-210 0 -95 33 -182 125 -209 221 -46 161 40 329 202 396 59 24 162 23 233 -4z
m2707 2 c69 -26 134 -83 171 -151 28 -50 30 -62 30 -154 0 -85 -3 -106 -23
-143 -32 -60 -97 -123 -157 -152 -61 -30 -168 -39 -229 -19 -54 17 -141 74
-165 107 -53 77 -65 114 -65 207 0 94 13 133 67 207 75 102 242 146 371 98z"/>
</g>
</svg>
