<svg version="1.1" id="Layer_1" xmlns="http://www.w3.org/2000/svg" xmlns:xlink="http://www.w3.org/1999/xlink" x="0px" y="0px"
	 width="100%" viewBox="0 0 608 528" enable-background="new 0 0 608 528" xml:space="preserve">
<path fill="#000000" opacity="1.000000" stroke="none" 
	d="
M199.381714,168.618408 
	C234.542816,203.864548 269.457367,238.857269 304.186371,273.664032 
	C307.618561,272.464722 309.110016,270.131683 310.951935,268.291931 
	C353.849915,225.444427 396.713470,182.562408 439.583801,139.687256 
	C440.408234,138.862717 441.213684,138.017166 442.069519,137.226379 
	C446.578400,133.060303 451.303070,132.742966 454.904633,136.345062 
	C458.353058,139.793915 458.268646,145.183426 454.253784,149.298340 
	C445.413452,158.359055 436.393829,167.244919 427.441376,176.196152 
	C389.628784,214.003738 351.813416,251.808533 314.001953,289.617249 
	C312.350861,291.268250 310.771088,293.057739 308.583038,293.973694 
	C303.870270,295.946472 300.390015,293.950470 297.045685,290.591949 
	C269.778931,263.209106 242.430298,235.907883 215.105408,208.582993 
	C195.907074,189.384674 176.704956,170.190155 157.512894,150.985565 
	C156.456299,149.928268 155.357178,148.881073 154.483047,147.679855 
	C151.766708,143.947144 152.098969,139.383591 155.197906,136.320908 
	C158.358200,133.197586 162.849762,132.848999 166.499741,136.002655 
	C170.397720,139.370590 173.935425,143.158875 177.591171,146.803040 
	C184.786850,153.975967 191.955383,161.176117 199.381714,168.618408 
z"/>
<path fill="#000000" opacity="1.000000" stroke="none" 
	d="
M383.132904,324.132751 
	C402.123352,305.155212 420.868744,286.432617 439.614746,267.710663 
	C440.440094,266.886444 441.247345,266.042267 442.103088,265.250671 
	C446.429443,261.248596 451.625732,260.940308 455.025757,264.466278 
	C458.386200,267.951172 458.135834,273.262146 454.095703,277.427032 
	C447.599335,284.124023 440.942413,290.665466 434.345856,297.265167 
	C394.529114,337.100677 354.710297,376.934143 314.891266,416.767365 
	C313.948792,417.710205 313.032349,418.683289 312.041290,419.572693 
	C306.729523,424.339874 302.876373,424.345428 297.736298,419.244904 
	C283.896637,405.511627 270.144257,391.690399 256.360443,377.900848 
	C223.608643,345.135162 190.858749,312.367615 158.107803,279.601105 
	C157.518753,279.011780 156.913177,278.438477 156.337402,277.836517 
	C151.859726,273.155457 151.464630,267.802460 155.324585,264.206024 
	C159.038895,260.745270 164.028564,261.310944 168.597351,265.872986 
	C201.144409,298.371887 233.689987,330.872284 266.190125,363.418091 
	C278.897095,376.142853 291.485809,388.985718 304.791229,402.445282 
	C331.169769,376.079987 357.028870,350.233887 383.132904,324.132751 
z"/>
</svg>