<?xml version="1.0" encoding="UTF-8"?>
<svg version="1.1" xmlns="http://www.w3.org/2000/svg" width="512" height="512">
<path d="M0 0 C3.35798654 1.25850984 6.28988241 2.70298029 9.3125 4.625 C13.05579429 6.92899485 16.84613083 8.92952438 20.80615234 10.82055664 C41.84290666 20.90697778 60.13830969 37.65300685 68.34375 59.9140625 C71.83077714 70.99782734 71.2791117 83.5769122 66.5546875 94.16015625 C62.81195459 100.99675632 58.19862378 106.31323568 52 111 C51.52433594 109.7625 51.52433594 109.7625 51.0390625 108.5 C45.23830599 94.14232642 37.08292493 81.99464881 27.2890625 70.06640625 C23.45424586 65.3745751 19.81877429 60.53761 16.1875 55.6875 C15.57753174 54.87571289 14.96756348 54.06392578 14.33911133 53.22753906 C12.54585594 50.82808194 10.77242428 48.4148705 9 46 C8.35490479 45.145271 7.70980957 44.29054199 7.04516602 43.40991211 C-2.23350482 30.7937268 -0.28276045 15.05373136 0 0 Z " fill="#000000" transform="translate(365,229)"/>
<path d="M0 0 C2.85864402 1.40846687 5.54824465 2.93404123 8.25 4.625 C12.03424532 6.92796761 15.87506841 8.95064737 19.85986328 10.87231445 C41.37225572 21.25438211 58.06463285 37.17554842 68 59 C72.00497072 71.58705082 71.78618541 83.18739025 65.875 95.25 C62.66964211 101.28282095 58.86535591 106.22310511 54 111 C53.01 110.67 52.02 110.34 51 110 C49.9296875 107.8046875 49.9296875 107.8046875 48.875 104.875 C43.79056631 92.10338679 36.04771136 81.44149114 27.45898438 70.82861328 C24.88521732 67.60279078 22.41040551 64.30342101 19.9375 61 C19.44096924 60.33734131 18.94443848 59.67468262 18.43286133 58.99194336 C14.58332928 53.83045752 10.82229747 48.60848045 7.12084961 43.33984375 C5.51636064 41.06498842 3.97298202 38.97298202 2 37 C-0.59927719 24.85399486 -0.23411015 12.34660919 0 0 Z " fill="#000000" transform="translate(153,278)"/>
<path d="M0 0 C8.43282172 6.35516999 13.63945888 14.43871588 15.42578125 24.828125 C15.51850633 26.65738986 15.5636347 28.48944645 15.57104492 30.32104492 C15.57742477 31.39533249 15.58380463 32.46962006 15.59037781 33.57646179 C15.59149063 34.72556534 15.59260345 35.87466888 15.59375 37.05859375 C15.5987426 38.83874626 15.5987426 38.83874626 15.60383606 40.65486145 C15.60889211 43.15881971 15.61124479 45.66278469 15.61108398 48.16674805 C15.61327899 52.01166715 15.63147217 55.8563032 15.65039062 59.70117188 C15.65332302 62.13281152 15.65530885 64.56445252 15.65625 66.99609375 C15.66343552 68.15126999 15.67062103 69.30644623 15.67802429 70.49662781 C15.67494766 71.56145889 15.67187103 72.62628998 15.66870117 73.72338867 C15.67012619 74.66317062 15.67155121 75.60295258 15.67301941 76.57121277 C15.42578125 78.828125 15.42578125 78.828125 13.42578125 80.828125 C10.92578125 81.078125 10.92578125 81.078125 8.42578125 80.828125 C5.88859763 78.29094138 6.17528865 77.40923334 6.17041016 73.89453125 C6.16345123 72.86585937 6.15649231 71.8371875 6.14932251 70.77734375 C6.15031952 69.65972656 6.15131653 68.54210937 6.15234375 67.390625 C6.1320384 65.02733915 6.11118733 62.66405795 6.08984375 60.30078125 C6.06732358 56.5727143 6.05080762 52.84483085 6.04492188 49.11669922 C6.03534517 45.52016883 6.00148429 41.9244678 5.96484375 38.328125 C5.96988922 37.22670166 5.97493469 36.12527832 5.98013306 34.99047852 C5.86122763 25.5423275 3.69339835 17.35279416 -2.86328125 10.296875 C-7.69029739 6.15313511 -13.37849211 4.15421955 -19.63671875 3.515625 C-26.21731352 4.03789443 -32.22406342 5.988873 -37.44921875 10.078125 C-44.00905279 18.56732199 -46.50091446 24.95930814 -45.57421875 35.828125 C-43.33640408 45.49386667 -38.05369653 49.63965751 -30.01171875 54.703125 C-24.38554904 58.43790319 -20.48046924 62.2122771 -18.80078125 68.9140625 C-18.12439158 73.11944176 -17.60372846 77.26184014 -17.5234375 81.5234375 C-17.45118098 83.82804007 -17.37899879 85.66468688 -16.57421875 87.828125 C-14.67842043 89.1854454 -12.81797048 89.95555924 -10.6484375 90.80078125 C-7.17712979 92.52009185 -5.38018567 95.48747375 -3.57421875 98.828125 C-1.60318434 104.74122823 -1.57681369 111.45974825 -4.13671875 117.203125 C-6.98130161 122.15066734 -11.23252909 125.04756178 -16.57421875 126.828125 C-16.61546875 128.065625 -16.65671875 129.303125 -16.69921875 130.578125 C-16.72242188 131.27421875 -16.745625 131.9703125 -16.76953125 132.6875 C-16.71627186 134.8576206 -16.71627186 134.8576206 -15.57421875 136.63671875 C-14.37168569 139.27195722 -14.34532234 141.14303336 -14.37890625 144.03125 C-14.38535156 145.0109375 -14.39179688 145.990625 -14.3984375 147 C-14.41519531 148.01578125 -14.43195313 149.0315625 -14.44921875 150.078125 C-14.45824219 151.109375 -14.46726562 152.140625 -14.4765625 153.203125 C-14.50009864 155.74502787 -14.53297852 158.2864578 -14.57421875 160.828125 C-15.56421875 160.498125 -16.55421875 160.168125 -17.57421875 159.828125 C-17.90421875 159.168125 -18.23421875 158.508125 -18.57421875 157.828125 C-22.79322832 157.3920109 -22.79322832 157.3920109 -26.32421875 159.328125 C-26.94296875 160.070625 -26.94296875 160.070625 -27.57421875 160.828125 C-28.23421875 160.828125 -28.89421875 160.828125 -29.57421875 160.828125 C-29.91345451 158.47467694 -30.24572409 156.1205766 -30.57421875 153.765625 C-30.66960937 153.10884766 -30.765 152.45207031 -30.86328125 151.77539062 C-31.46318523 147.42608679 -31.83452943 143.21544459 -31.57421875 138.828125 C-30.24088542 137.16145833 -28.90755208 135.49479167 -27.57421875 133.828125 C-27.23955986 130.11871725 -27.23955986 130.11871725 -27.57421875 126.828125 C-28.09371094 126.62058594 -28.61320312 126.41304687 -29.1484375 126.19921875 C-34.59809217 123.79170033 -37.73088974 121.08767351 -40.57421875 115.828125 C-42.45464368 110.1868502 -42.35468375 104.04628869 -40.38671875 98.453125 C-36.80021108 93.25887251 -33.22409814 90.53227417 -27.57421875 87.828125 C-27.63458827 85.11753355 -27.72173785 82.41218523 -27.82421875 79.703125 C-27.83839844 78.94257812 -27.85257812 78.18203125 -27.8671875 77.3984375 C-28.09393016 72.13800777 -29.03838446 68.9563184 -32.57421875 64.828125 C-34.92730418 63.02233181 -34.92730418 63.02233181 -37.51171875 61.703125 C-38.83236328 60.94902344 -38.83236328 60.94902344 -40.1796875 60.1796875 C-41.36498047 59.51066406 -41.36498047 59.51066406 -42.57421875 58.828125 C-49.88185352 54.17781196 -53.65535844 46.04296939 -55.57421875 37.828125 C-56.66709837 26.18768629 -55.24175719 16.59673687 -48.38671875 7.015625 C-36.00404529 -7.68058405 -16.00748491 -10.25673994 0 0 Z " fill="#000000" transform="translate(379.57421875,28.171875)"/>
<path d="M0 0 C8.74826804 6.2695921 13.23550514 14.10015777 15.53125 24.4921875 C15.91781522 28.73852797 15.90621369 32.94961047 15.859375 37.2109375 C15.85750183 38.3906311 15.85562866 39.57032471 15.85369873 40.7857666 C15.84701549 43.25987609 15.83317616 45.73397569 15.8125 48.20800781 C15.78111477 52.00856259 15.77150081 55.80870296 15.765625 59.609375 C15.75646325 62.01823427 15.74609014 64.4270893 15.734375 66.8359375 C15.73012512 67.97542847 15.72587524 69.11491943 15.72149658 70.28894043 C15.71188904 71.33763306 15.70228149 72.38632568 15.69238281 73.46679688 C15.68555481 74.3914978 15.67872681 75.31619873 15.67169189 76.2689209 C15.53125 78.4921875 15.53125 78.4921875 14.53125 80.4921875 C12.22125 80.4921875 9.91125 80.4921875 7.53125 80.4921875 C6.30236918 78.03442585 6.40019487 76.41442057 6.3894043 73.66625977 C6.38236984 72.66083633 6.37533539 71.6554129 6.36808777 70.61952209 C6.36392349 69.52691574 6.35975922 68.43430939 6.35546875 67.30859375 C6.33225155 64.9954338 6.30813347 62.68228275 6.28320312 60.36914062 C6.24822958 56.72235326 6.21882852 53.07588895 6.20532227 49.42895508 C6.18973463 45.90926691 6.14943374 42.39052761 6.10546875 38.87109375 C6.10737717 37.79670547 6.10928558 36.7223172 6.11125183 35.6153717 C5.96980238 26.74811069 4.41289787 18.34125935 -1.65625 11.5546875 C-7.99400661 5.95700863 -14.40240201 3.81132029 -22.83203125 4.17578125 C-30.03240184 5.03982572 -35.66115431 8.02568276 -40.46875 13.4921875 C-45.10828337 20.91544089 -46.25734024 27.79608963 -45.46875 36.4921875 C-44.52465012 39.76474096 -43.19331698 42.5634492 -41.46875 45.4921875 C-40.953125 46.3790625 -40.4375 47.2659375 -39.90625 48.1796875 C-37.38868896 50.56814284 -35.1756065 51.74499287 -32.09375 53.3046875 C-25.66542927 56.63471212 -22.52852752 60.66688639 -19.15625 66.9296875 C-17.26216193 73.98947029 -17.33233244 81.23174207 -17.46875 88.4921875 C-16.788125 88.5334375 -16.1075 88.5746875 -15.40625 88.6171875 C-9.91688966 90.25231611 -6.46177604 93.85849951 -3.53125 98.6796875 C-1.92796698 104.43264421 -1.12055214 110.16330391 -3.41796875 115.8359375 C-6.30327281 120.71455887 -9.63452569 124.73639435 -15.28125 126.2421875 C-16.003125 126.3246875 -16.725 126.4071875 -17.46875 126.4921875 C-17.35365339 127.90969313 -17.22621342 129.32619919 -17.09375 130.7421875 C-16.98933594 131.92554688 -16.98933594 131.92554688 -16.8828125 133.1328125 C-16.60275425 135.48560277 -16.60275425 135.48560277 -15.45507812 137.31445312 C-14.26571803 139.94046602 -14.24000913 141.82047269 -14.2734375 144.6953125 C-14.27988281 145.675 -14.28632813 146.6546875 -14.29296875 147.6640625 C-14.30972656 148.67984375 -14.32648438 149.695625 -14.34375 150.7421875 C-14.35277344 151.7734375 -14.36179688 152.8046875 -14.37109375 153.8671875 C-14.39462989 156.40909037 -14.42750977 158.9505203 -14.46875 161.4921875 C-15.60376953 160.50992188 -15.60376953 160.50992188 -16.76171875 159.5078125 C-19.96298778 157.12418361 -21.57422524 157.12990613 -25.46875 157.4921875 C-26.45875 159.4721875 -26.45875 159.4721875 -27.46875 161.4921875 C-28.12875 161.4921875 -28.78875 161.4921875 -29.46875 161.4921875 C-32.14771679 143.44790706 -32.14771679 143.44790706 -30.46875 136.4921875 C-28.4140625 135.265625 -28.4140625 135.265625 -26.46875 134.4921875 C-26.46875 131.8521875 -26.46875 129.2121875 -26.46875 126.4921875 C-27.149375 126.4509375 -27.83 126.4096875 -28.53125 126.3671875 C-34.04622103 124.72443017 -37.50381222 121.1107928 -40.40625 116.2421875 C-42.17958356 109.98336318 -42.56579117 104.2160131 -39.84375 98.1796875 C-37.62700722 94.31017891 -35.16524689 91.981665 -31.46875 89.4921875 C-29.81366234 89.10543988 -28.146881 88.76193783 -26.46875 88.4921875 C-26.72471554 85.76088457 -26.99791587 83.03317286 -27.28125 80.3046875 C-27.35150391 79.53576172 -27.42175781 78.76683594 -27.49414062 77.97460938 C-28.10031114 72.32510016 -29.26268162 68.50360279 -33.59375 64.5546875 C-35.22855523 63.38189245 -36.88137853 62.23133915 -38.58203125 61.15625 C-46.64251391 56.03547278 -51.74455534 50.95811323 -54.7734375 41.71875 C-57.17820628 30.55954206 -56.21017154 20.0171964 -50.078125 10.28515625 C-38.27024494 -6.46338941 -17.62512481 -10.76471231 0 0 Z " fill="#000000" transform="translate(167.46875,77.5078125)"/>
<path d="M0 0 C0.66 0 1.32 0 2 0 C2.28846756 3.98330739 2.57314648 7.96686669 2.85449219 11.95068359 C2.99739813 13.96335561 3.14320349 15.97582109 3.2890625 17.98828125 C3.54722746 21.65791171 3.78325958 25.32770634 4 29 C4.0518042 29.82669189 4.1036084 30.65338379 4.15698242 31.50512695 C4.43636289 39.28229948 0.52131807 45.93353208 -4.3125 51.8125 C-9.17891774 55.77353769 -14.1273098 59.60243541 -19.15625 63.35546875 C-35.34243169 75.49629623 -47.04142974 89.86883221 -56 108 C-56.66 108 -57.32 108 -58 108 C-59.13169701 105.64885408 -60.25541381 103.29440665 -61.375 100.9375 C-61.69210937 100.28072266 -62.00921875 99.62394531 -62.3359375 98.94726562 C-67.72474155 87.5521904 -69.16011796 74.67755542 -66.08984375 62.34375 C-64.91101696 59.40236869 -63.60025273 56.73306322 -62 54 C-61.53078125 53.19433594 -61.0615625 52.38867188 -60.578125 51.55859375 C-59.14615942 49.28361618 -57.62412268 47.14125627 -56 45 C-55.52304687 44.35804688 -55.04609375 43.71609375 -54.5546875 43.0546875 C-45.43065837 31.72988752 -32.07336332 23.82915465 -20 16 C-17.76674962 14.54767564 -15.53860393 13.08833199 -13.3125 11.625 C-11.91451172 10.71621094 -11.91451172 10.71621094 -10.48828125 9.7890625 C-7.9353458 8.05774028 -7.9353458 8.05774028 -5.79296875 5.7734375 C-4 4 -4 4 -2 4 C-1.34 2.68 -0.68 1.36 0 0 Z " fill="#000000" transform="translate(356,231)"/>
<path d="M0 0 C0.33 0 0.66 0 1 0 C1.28846756 3.98330739 1.57314648 7.96686669 1.85449219 11.95068359 C1.99739813 13.96335561 2.14320349 15.97582109 2.2890625 17.98828125 C3.2384539 31.48320189 3.65478927 40.8724138 -5 52 C-8.6760062 55.51617984 -12.52458414 58.36631913 -16.73022461 61.22290039 C-34.80912951 73.63048101 -47.12034019 89.59012172 -57 109 C-60.34237126 106.02031158 -61.97484551 103.33417855 -63.625 99.1875 C-64.02976562 98.19105469 -64.43453125 97.19460938 -64.8515625 96.16796875 C-69.45577117 83.46724346 -70.27172812 69.4553982 -64.609375 56.921875 C-53.91791834 37.51117213 -36.26246711 26.30261136 -18.09521484 14.72265625 C-11.81349312 10.66441221 -6.25754648 6.34841766 -1 1 C-0.67 0.67 -0.34 0.34 0 0 Z " fill="#000000" transform="translate(145,280)"/>
<path d="M0 0 C2.22909021 3.34363532 2.30137816 4.6673058 2.44921875 8.59375 C2.49240234 9.7075 2.53558594 10.82125 2.58007812 11.96875 C2.61552734 13.1340625 2.65097656 14.299375 2.6875 15.5 C2.73455078 16.634375 2.78160156 17.76875 2.83007812 18.9375 C3.61070203 41.2556655 -4.08980341 52.39728254 -18.78125 68.6484375 C-20.78669636 70.77392818 -22.86393181 72.75803164 -25 74.75 C-36.86165105 86.56429915 -42.43087773 101.70332885 -45 118 C-53.4572172 110.27059839 -58.54784921 98.75354873 -59.2109375 87.3828125 C-59.86467275 68.05923618 -52.87052852 51.33308858 -40 37 C-38.9171875 35.73929687 -38.9171875 35.73929687 -37.8125 34.453125 C-30.31639418 25.86383708 -22.45696719 19.02653362 -12.796875 12.95703125 C-8.67786777 10.07487675 -5.35156126 6.57477526 -2.1875 2.6875 C-1.465625 1.800625 -0.74375 0.91375 0 0 Z " fill="#000000" transform="translate(149,330)"/>
<path d="M0 0 C2.44189945 3.76324719 2.33946652 7.57670688 2.37109375 11.9140625 C2.38463646 13.06858414 2.38463646 13.06858414 2.39845276 14.24642944 C2.41294132 15.87534714 2.42183854 17.50432285 2.42553711 19.13330078 C2.43736274 21.59641089 2.48649496 24.05695487 2.53710938 26.51953125 C2.6307498 35.46312878 2.28115495 42.41357153 -3 50 C-3.72058594 51.09828125 -4.44117188 52.1965625 -5.18359375 53.328125 C-9.80386198 59.31765816 -14.62555624 64.73610965 -20.0625 70 C-34.2611312 83.79159104 -40.9804248 98.84526453 -45 118 C-53.46950974 110.25936373 -58.55337974 98.73314715 -59.2109375 87.34765625 C-59.91310692 66.43250316 -50.4861162 48.32763028 -36.5 33.15625 C-29.37278122 25.65297863 -22.08404278 19.31064613 -13.40209961 13.67993164 C-7.87232475 10.06273141 -3.00859169 6.01718338 0 0 Z " fill="#000000" transform="translate(361,280)"/>
<path d="M0 0 C2.1587821 8.09543287 4.06893381 17.31695361 0.4375 25.25 C-3.20409385 31.37853599 -7.71172403 36.27870534 -13.5859375 40.3125 C-14.46620605 40.91779541 -15.34647461 41.52309082 -16.25341797 42.14672852 C-19.76676205 44.51737695 -23.29784711 46.85954419 -26.83959961 49.1875 C-40.91662729 58.3961267 -40.91662729 58.3961267 -53.5 69.5 C-54.325 70.325 -55.15 71.15 -56 72 C-56.66 72 -57.32 72 -58 72 C-62.81649359 59.56672585 -65.37643676 46.26652834 -59.9609375 33.5625 C-53.27626019 20.79692269 -42.40993667 12.92154965 -29 8 C-25.21721945 6.87962232 -21.43490301 5.87434545 -17.609375 4.91015625 C-12.26181322 3.561691 -5.40020112 0 0 0 Z " fill="#000000" transform="translate(144,245)"/>
<path d="M0 0 C2.66136373 9.98011398 3.93417869 19.42496073 -1.4140625 28.703125 C-7.69637258 37.80164305 -16.86531418 43.13929945 -26 49 C-36.66903507 55.90380436 -47.07646152 62.85080882 -56 72 C-59 71 -59 71 -59.9140625 69.20703125 C-63.95665709 55.59103957 -64.45984683 42.13628503 -57.5859375 29.44140625 C-46.42085471 12.2537788 -26.16239444 6.90409696 -7.35546875 2.67578125 C-4.56783882 1.87601346 -2.91206282 0 0 0 Z " fill="#000000" transform="translate(356,195)"/>
<path d="M0 0 C10.75894846 10.33858623 18.90481858 25.9273162 19.29248047 40.875 C19.40603747 53.28317971 16.79000791 63.1093158 9 73 C8.37480469 73.80050781 7.74960938 74.60101563 7.10546875 75.42578125 C-3.85103655 88.49634323 -19.55616946 97.19893971 -35 104 C-35.66 104 -36.32 104 -37 104 C-35.60926648 100.16683397 -33.80236996 97.02438685 -31.5625 93.625 C-13.5718357 65.02316369 -5.38354184 32.98184597 0 0 Z " fill="#000000" transform="translate(157,386)"/>
<path d="M0 0 C3.67429944 3.59048961 6.23121573 7.68927776 9 12 C9.78310547 13.16595703 9.78310547 13.16595703 10.58203125 14.35546875 C18.68311823 26.92753537 20.78429203 40.24279001 18.5625 54.8828125 C13.90932802 72.97201857 -0.59684563 85.5907462 -15.9765625 94.82861328 C-19.5186333 96.87915089 -23.10855908 98.81954191 -26.75 100.6875 C-27.7694873 101.2148877 -27.7694873 101.2148877 -28.80957031 101.75292969 C-33.63065758 104.12311414 -33.63065758 104.12311414 -37 103 C-36.443125 102.09121094 -35.88625 101.18242187 -35.3125 100.24609375 C-32.83852324 96.18544992 -30.4082251 92.09994552 -28 88 C-27.47212891 87.1030542 -27.47212891 87.1030542 -26.93359375 86.18798828 C-11.46662296 59.55295476 -4.92572839 30.07669592 0 0 Z " fill="#000000" transform="translate(369,336)"/>
<path d="M0 0 C3.85606959 1.28535653 4.6408987 2.90470647 7 6.1875 C7.8029654 7.29161903 8.60772814 8.39443266 9.4140625 9.49609375 C9.8359082 10.07343262 10.25775391 10.65077148 10.69238281 11.24560547 C12.41120263 13.55169942 14.2038826 15.7933446 16.00317383 18.03686523 C30.70427865 36.3955861 45.23624871 55.29602901 43 80 C41.23829215 89.43325837 35.36216594 97.05366189 29 104 C27.515 104.495 27.515 104.495 26 105 C25.97421875 104.06800781 25.9484375 103.13601563 25.921875 102.17578125 C25.20334578 86.02520405 20.4796839 71.73123728 10.37890625 58.9140625 C6.1888185 53.09779339 4.36264829 46.24345864 2.61328125 39.3828125 C2.146398 37.56880751 1.59233387 35.7770016 1 34 C0.95332746 32.20894134 0.96238799 30.41627183 1 28.625 C1.08677481 19.06892401 0.50871223 9.53970733 0 0 Z " fill="#000000" transform="translate(369,281)"/>
<path d="M0 0 C0.66 0 1.32 0 2 0 C3.8311614 2.25515515 5.55013469 4.52316898 7.25 6.875 C11.20290684 12.26543779 15.22416395 17.57633384 19.3918457 22.80273438 C32.93600005 39.84756003 44.72752021 57.34758715 43 80 C40.55678807 90.87578338 34.68268283 99.22750739 26 106 C25.97421875 104.99582031 25.9484375 103.99164063 25.921875 102.95703125 C25.33488072 86.99039416 20.97719125 73.97508267 11.375 61.0625 C7.5503767 55.76037322 5.74185872 50.24922772 4 44 C3.66605225 42.96504395 3.33210449 41.93008789 2.98803711 40.86376953 C1.89272901 36.58051132 1.55729099 32.62020999 1.3671875 28.22265625 C1.32562531 27.41130722 1.28406311 26.59995819 1.24124146 25.76402283 C1.11149895 23.1971603 0.99307014 20.62992319 0.875 18.0625 C0.78851027 16.31181175 0.70127806 14.56116002 0.61328125 12.81054688 C0.40026699 8.5407388 0.19739072 4.2705577 0 0 Z " fill="#000000" transform="translate(157,330)"/>
<path d="M0 0 C22.49890585 3.97679033 42.97426428 13.23750265 57 32 C63.84510793 42.7343738 67.336114 53.1476408 67 66 C66.01171875 68.41796875 66.01171875 68.41796875 65 70 C64.30777344 69.12859375 63.61554688 68.2571875 62.90234375 67.359375 C50.31764803 51.88968478 35.72667733 41.44272542 17.6875 33.0625 C10.62398011 29.62057063 5.3433339 24.51500085 1 18 C0.68115234 16.00708008 0.68115234 16.00708008 0.5859375 13.76953125 C0.54726563 12.96708984 0.50859375 12.16464844 0.46875 11.33789062 C0.4378125 10.50451172 0.406875 9.67113281 0.375 8.8125 C0.33632813 7.96751953 0.29765625 7.12253906 0.2578125 6.25195312 C0.16363721 4.16832476 0.08073325 2.08419247 0 0 Z " fill="#000000" transform="translate(364,198)"/>
<path d="M0 0 C17.9921095 4.2804306 33.04436879 9.41587048 47 22 C47.76828125 22.66386719 48.5365625 23.32773437 49.328125 24.01171875 C60.46003621 34.25383434 65.84155718 46.59896454 67.23828125 61.55078125 C67.36714483 65.26069596 67.10182301 66.84726549 65 70 C64.23816406 69.154375 63.47632813 68.30875 62.69140625 67.4375 C50.30942191 53.78546516 37.51494431 43.78230498 21.125 35.375 C12.70076547 31.03340138 5.66804567 26.53670086 1 18 C0.40747364 14.87490697 0.30570454 11.80015896 0.25 8.625 C0.22035156 7.79355469 0.19070312 6.96210938 0.16015625 6.10546875 C0.08999601 4.07082173 0.04267105 2.03540909 0 0 Z " fill="#000000" transform="translate(152,247)"/>
<path d="M0 0 C0.33 0 0.66 0 1 0 C0.31490143 28.96098519 -11.01756842 57.95580447 -24.1875 83.3125 C-24.57897217 84.07030762 -24.97044434 84.82811523 -25.3737793 85.60888672 C-28.11238179 90.7429801 -31.19973985 95.5762071 -35 100 C-35.33 100 -35.66 100 -36 100 C-41.73681362 48.98333598 -41.73681362 48.98333598 -25 27.6875 C-20.82641461 22.75317747 -16.3038884 18.23451554 -11.68457031 13.72460938 C-7.80293484 9.90517222 -4.37478664 5.92761426 -1.171875 1.51171875 C-0.78515625 1.01285156 -0.3984375 0.51398438 0 0 Z " fill="#000000" transform="translate(149,386)"/>
<path d="M0 0 C0.66 0 1.32 0 2 0 C-0.72502946 34.15683477 -12.37189511 71.19335091 -33 99 C-33.99 99.495 -33.99 99.495 -35 100 C-40.84301239 48.50845333 -40.84301239 48.50845333 -24.37890625 27.61328125 C-20.82225951 23.25334485 -17.35857026 19.106918 -12.984375 15.54296875 C-9.66046019 12.71068008 -7.29159424 9.70572536 -4.75 6.1875 C-3.21425932 4.06900058 -1.65401997 2.03182669 0 0 Z " fill="#000000" transform="translate(360,337)"/>
</svg>
