<?xml version="1.0" encoding="UTF-8"?>
<svg version="1.1" xmlns="http://www.w3.org/2000/svg" width="512" height="512">
<path d="M0 0 C0.82927002 0.00757324 1.65854004 0.01514648 2.51293945 0.02294922 C12.96795527 0.30283924 20.78728124 3.55031309 28.625 10.4375 C29.53378906 11.18966797 29.53378906 11.18966797 30.4609375 11.95703125 C38.76822813 19.41182699 43.14415199 30.34213488 43.79884338 41.36425781 C43.85519596 44.69389172 43.85003212 48.01768191 43.8203125 51.34765625 C43.8174826 52.55570419 43.81465271 53.76375214 43.81173706 55.00840759 C43.80060767 58.83904228 43.77551623 62.66943685 43.75 66.5 C43.73996085 69.10872056 43.73083664 71.71744482 43.72265625 74.32617188 C43.70069205 80.6966955 43.66728695 87.06708058 43.625 93.4375 C44.22664978 93.6319017 44.82829956 93.82630341 45.44818115 94.02659607 C46.24613098 94.28779739 47.04408081 94.54899872 47.86621094 94.81811523 C48.65348572 95.07439194 49.4407605 95.33066864 50.25189209 95.5947113 C53.96371524 96.91293311 57.40515927 98.6474856 60.875 100.5 C61.60734863 100.8906665 62.33969727 101.28133301 63.09423828 101.68383789 C70.20720884 105.58737292 76.43743486 110.21370482 82.625 115.4375 C83.56859375 116.21738281 84.5121875 116.99726563 85.484375 117.80078125 C110.34466239 139.25506882 124.79201643 171.05953331 127.625 203.4375 C128.09753099 212.6729085 128.10290348 221.915991 128.07104492 231.16088867 C128.0593798 234.71152374 128.08010521 238.26118982 128.10896206 241.81169796 C128.12729903 244.5767287 128.12704002 247.34152355 128.12132454 250.10659981 C128.1210986 252.04814493 128.1379304 253.98966819 128.15513611 255.93113708 C128.14575516 257.10749222 128.13637421 258.28384735 128.12670898 259.49584961 C128.12645973 261.04084389 128.12645973 261.04084389 128.12620544 262.61705017 C127.49445174 266.17213852 126.09454494 267.85294517 123.625 270.4375 C121.35393452 271.57303274 120.11929468 271.5646499 117.59784985 271.56892776 C116.32680425 271.57468948 116.32680425 271.57468948 115.03008097 271.5805676 C114.09381682 271.57970112 113.15755267 271.57883463 112.19291687 271.57794189 C110.7071905 271.58239858 110.7071905 271.58239858 109.19144946 271.5869453 C105.851176 271.59566137 102.51093825 271.59714299 99.1706543 271.59863281 C96.78441287 271.60325892 94.39817219 271.6082833 92.01193237 271.61367798 C85.51398974 271.62682378 79.01605397 271.6332876 72.5181005 271.63768864 C68.46196915 271.64044956 64.4058402 271.64468665 60.34971046 271.64919281 C49.12314217 271.66138701 37.8965758 271.67168585 26.67000103 271.6750679 C25.59179881 271.67539725 25.59179881 271.67539725 24.49181472 271.67573325 C23.41100642 271.67606067 23.41100642 271.67606067 22.30836362 271.6763947 C20.84823525 271.67683817 19.38810688 271.67728473 17.92797852 271.67773438 C16.84156326 271.67806652 16.84156326 271.67806652 15.73320023 271.67840537 C3.99669774 271.68235358 -7.73974267 271.69980757 -19.47622118 271.7230939 C-31.5211133 271.74679955 -43.56597426 271.7592694 -55.61089009 271.76043582 C-62.37558476 271.76135305 -69.14019857 271.76711741 -75.90487099 271.78525543 C-82.26679324 271.80168824 -88.62856173 271.80391491 -94.99049759 271.79511642 C-97.32822391 271.79434348 -99.66595833 271.7987224 -102.00366402 271.80857468 C-105.18994974 271.82121787 -108.37568462 271.81545873 -111.56196594 271.80499268 C-112.49153793 271.81304908 -113.42110992 271.82110548 -114.37885076 271.82940602 C-119.19812331 271.79226999 -122.47149354 271.59614845 -126.375 268.4375 C-128.55414156 265.33902829 -128.62767468 262.65712267 -128.63378906 258.92895508 C-128.64009338 257.82292435 -128.64639771 256.71689362 -128.65289307 255.5773468 C-128.6488446 254.38264267 -128.64479614 253.18793854 -128.640625 251.95703125 C-128.64253845 250.71563889 -128.6444519 249.47424652 -128.64642334 248.19523621 C-128.64778568 245.55978566 -128.64509304 242.92470448 -128.63574219 240.28930664 C-128.62229217 236.31062412 -128.6355751 232.33220178 -128.6484375 228.35351562 C-128.65830636 212.05304514 -128.61332205 195.83703869 -124.25 180 C-124.03754639 179.21906982 -123.82509277 178.43813965 -123.60620117 177.63354492 C-117.84375798 157.51249198 -107.48496827 139.64901093 -92.75634766 124.83789062 C-91.51375373 123.57816656 -90.30710933 122.2832223 -89.10546875 120.984375 C-80.56802327 111.92422877 -70.35079476 105.27573111 -59.4375 99.4375 C-58.74011719 99.06367187 -58.04273437 98.68984375 -57.32421875 98.3046875 C-53.0887965 96.11395185 -48.99747658 94.69650525 -44.375 93.4375 C-44.38499275 92.46269684 -44.38499275 92.46269684 -44.39518738 91.46820068 C-44.46198252 84.65398141 -44.50698259 77.8398564 -44.53979492 71.02539062 C-44.55480477 68.48824277 -44.57521897 65.95112052 -44.60131836 63.4140625 C-44.63804605 59.74993538 -44.65480508 56.08615377 -44.66796875 52.421875 C-44.68345261 51.30262634 -44.69893646 50.18337769 -44.71488953 49.0302124 C-44.71798691 34.26436479 -40.97024346 22.55164506 -30.8671875 11.76953125 C-22.2066883 3.66558451 -11.75155506 -0.15150884 0 0 Z M-20.75 25.5625 C-26.65965785 33.54658306 -27.96699118 42.32467922 -27.765625 52.01171875 C-27.75996521 53.06156448 -27.75430542 54.11141022 -27.74847412 55.19306946 C-27.72631214 58.50420231 -27.67615438 61.81420134 -27.625 65.125 C-27.60490891 67.38735402 -27.58666275 69.64972522 -27.5703125 71.91210938 C-27.52651404 77.42095141 -27.45980828 82.92914467 -27.375 88.4375 C-26.43140625 88.29602539 -25.4878125 88.15455078 -24.515625 88.00878906 C-16.42233725 86.8528953 -8.56612606 86.12090548 -0.375 86.1875 C0.57632813 86.17976563 1.52765625 86.17203125 2.5078125 86.1640625 C10.67224805 86.18583433 18.56390477 87.22888634 26.625 88.4375 C26.72701175 81.6423841 26.7967207 74.84746808 26.84472656 68.05175781 C26.86475417 65.74341451 26.89198439 63.43512138 26.92675781 61.12695312 C26.97566594 57.79544643 26.99805811 54.46461462 27.015625 51.1328125 C27.04659271 49.602509 27.04659271 49.602509 27.07818604 48.04129028 C27.08097722 38.98509963 24.81175181 30.67614245 18.4296875 23.9765625 C11.62342519 18.17208771 4.89494221 16.60055667 -3.96875 16.95703125 C-10.70963193 17.90786666 -16.01682463 20.67626175 -20.75 25.5625 Z M-84.5 140.6875 C-89.64689326 146.47170449 -93.61066857 152.68934646 -97.375 159.4375 C-97.92027344 160.40429688 -98.46554688 161.37109375 -99.02734375 162.3671875 C-107.85597652 178.94614676 -110.27670689 195.76651718 -111.375 214.4375 C-38.115 214.4375 35.145 214.4375 110.625 214.4375 C110.625 183.84070472 99.32062744 155.96097723 77.8125 134.125 C55.77612113 112.4492381 27.17189321 101.83568854 -3.51806641 102.08837891 C-35.53111199 102.83263285 -62.70556397 117.76174974 -84.5 140.6875 Z M-111.375 231.4375 C-111.375 239.0275 -111.375 246.6175 -111.375 254.4375 C-38.115 254.4375 35.145 254.4375 110.625 254.4375 C110.625 246.8475 110.625 239.2575 110.625 231.4375 C37.365 231.4375 -35.895 231.4375 -111.375 231.4375 Z " fill="#000000" transform="translate(150.375,15.5625)"/>
<path d="M0 0 C4.25115332 2.48132171 7.29252034 6.19728184 9.625 10.5 C9.625 11.49 9.625 12.48 9.625 13.5 C10.91535156 13.61214844 12.20570313 13.72429688 13.53515625 13.83984375 C18.56109607 14.40417013 23.23388183 15.58672801 28.0625 17.0625 C28.92576904 17.32571045 29.78903809 17.5889209 30.6784668 17.86010742 C54.60794578 25.40677752 75.4318966 38.25728259 93.625 55.5 C94.11581055 55.95294434 94.60662109 56.40588867 95.11230469 56.87255859 C122.58091034 82.31310832 142.21366293 121.01016615 143.71657193 158.80269051 C143.75018382 161.38076743 143.75353805 163.95711558 143.74525452 166.53540039 C143.74653615 168.00960701 143.74653615 168.00960701 143.74784368 169.51359558 C143.74948476 172.79163462 143.74399964 176.06962196 143.73852539 179.34765625 C143.7382432 181.70348611 143.73840188 184.05931606 143.7389679 186.41514587 C143.73925461 192.80083984 143.73337813 199.18651499 143.72639394 205.57220459 C143.72077346 211.57253551 143.7197703 217.57286646 143.71874207 223.57319951 C143.71655627 235.45391389 143.70990899 247.33462139 143.70043945 259.21533203 C143.69125312 270.75276658 143.68417826 282.29019925 143.67993164 293.82763672 C143.67966892 294.53942687 143.67940619 295.25121703 143.67913551 295.98457658 C143.67783042 299.55560453 143.67656673 303.12663248 143.67532361 306.69766045 C143.66496569 336.29844486 143.64728562 365.8992221 143.625 395.5 C144.87112061 395.48428955 146.11724121 395.4685791 147.40112305 395.45239258 C152.03224198 395.39801927 156.66333278 395.36362289 161.29467773 395.33520508 C163.29765572 395.32013535 165.3006008 395.2996759 167.3034668 395.27368164 C170.18546681 395.23721873 173.06702984 395.22025539 175.94921875 395.20703125 C176.84211105 395.19154739 177.73500336 395.17606354 178.654953 395.16011047 C183.45973067 395.15881513 186.74780859 395.31808247 190.625 398.5 C192.19435594 401.63871188 191.97701103 404.03855822 191.625 407.5 C189.62291413 410.32414465 188.02833075 412.19010356 184.54998779 412.95822334 C181.94551625 413.14540482 179.38452282 413.1640035 176.7734375 413.13110352 C175.78587463 413.13825882 174.79831177 413.14541412 173.78082275 413.15278625 C170.52007634 413.16967935 167.26070353 413.15026616 164 413.12890625 C161.73225796 413.12973489 159.46451597 413.13219407 157.19677734 413.13621521 C152.44545398 413.13907365 147.6946019 413.12436687 142.94335938 413.09692383 C136.85331935 413.06284158 130.76412211 413.06885916 124.67404175 413.0875864 C119.99170916 413.09815539 115.30957265 413.08921936 110.6272583 413.07420158 C108.38178082 413.06901861 106.13628288 413.06950296 103.89080811 413.07574654 C100.7522784 413.0811973 97.61495479 413.06082683 94.4765625 413.03344727 C93.54861877 413.03997314 92.62067505 413.04649902 91.66461182 413.05322266 C87.46007663 412.99085994 85.20072358 412.8548236 81.55078125 410.60533142 C79.35672797 408.20671564 78.94502553 407.21050906 79 404 C78.98066406 402.87078125 78.98066406 402.87078125 78.9609375 401.71875 C79.987012 398.29045401 81.5911125 397.36767729 84.625 395.5 C87.85720358 394.95648165 91.03110341 395.03377466 94.30078125 395.109375 C95.2259404 395.11503479 96.15109955 395.12069458 97.10429382 395.12652588 C100.04922986 395.1488552 102.99293386 395.19904514 105.9375 395.25 C107.93813343 395.27006946 109.93878599 395.28831945 111.93945312 395.3046875 C116.83510764 395.34870875 121.72984518 395.41771253 126.625 395.5 C126.565757 365.61393929 126.49132843 335.72794518 126.39601372 305.84197787 C126.38474699 302.30513403 126.37360831 298.7682898 126.36254883 295.23144531 C126.3592433 294.17536414 126.3592433 294.17536414 126.355871 293.097948 C126.3206011 281.73226628 126.295679 270.36658461 126.27465298 259.00086863 C126.25280843 247.31867008 126.21967687 235.63654189 126.17629844 223.95440328 C126.15244545 217.40111542 126.13366483 210.84790496 126.12738609 204.29457474 C126.1212993 198.11398616 126.10117062 191.93359543 126.07072449 185.75308037 C126.06200156 183.49662467 126.05820961 181.24014305 126.05999184 178.98367119 C126.07993992 142.0411581 116.19737663 107.8453006 91.625 79.5 C90.92890625 78.68273437 90.2328125 77.86546875 89.515625 77.0234375 C70.3914939 55.11884763 44.84866674 39.62094818 16.625 32.5 C15.28695312 32.12294922 15.28695312 32.12294922 13.921875 31.73828125 C11.56436597 31.23711011 9.98341354 31.00374064 7.625 31.5 C5.32589423 33.07397037 3.43569672 34.81428549 1.45703125 36.7734375 C-2.08520487 40.11174958 -5.54143329 40.43277688 -10.25 40.8125 C-15.73361702 40.61404529 -20.23842832 39.43928511 -24.36328125 35.6953125 C-29.75799969 29.77564216 -31.8953057 25.17474596 -31.6796875 17.125 C-31.05792584 11.76828419 -29.36502247 7.40593701 -25.43359375 3.640625 C-18.08014012 -2.04712919 -8.81912661 -3.87222774 0 0 Z M-12.375 15.5 C-13.035 16.16 -13.695 16.82 -14.375 17.5 C-14.05458603 20.10280568 -14.05458603 20.10280568 -13.375 22.5 C-11.52774948 23.19159401 -11.52774948 23.19159401 -9.375 23.5 C-8.385 22.84 -7.395 22.18 -6.375 21.5 C-6.705 19.85 -7.035 18.2 -7.375 16.5 C-9.77219432 15.82041397 -9.77219432 15.82041397 -12.375 15.5 Z " fill="#000000" transform="translate(247.375,37.5)"/>
<path d="M0 0 C0.83772367 -0.00638882 1.67544734 -0.01277764 2.53855658 -0.01936007 C5.35028468 -0.03464086 8.16061064 -0.01412879 10.97229004 0.00622559 C12.98607348 0.00272531 14.99985417 -0.0029322 17.0136261 -0.0105896 C22.48680672 -0.02486065 27.95948634 -0.00775314 33.43261909 0.01569557 C39.15494749 0.03577195 44.87725443 0.02992669 50.59960938 0.02758789 C60.2100859 0.0276415 69.82036605 0.04741927 79.43078613 0.07946777 C90.54848275 0.11636202 101.66592202 0.12514367 112.78367186 0.11817026 C123.46989645 0.11186931 134.15603262 0.12261201 144.84223938 0.14213562 C149.39399982 0.15031944 153.94571512 0.15301736 158.4974823 0.15144348 C163.85567572 0.1505658 169.21362383 0.16474932 174.57175255 0.19067001 C176.54060871 0.19784426 178.50949095 0.19990941 180.47835732 0.19655228 C183.16137654 0.19284946 185.84367512 0.2075431 188.52661133 0.22705078 C189.70150816 0.21905889 189.70150816 0.21905889 190.90014029 0.21090555 C194.07720694 0.25089139 196.39287582 0.42333334 199.21950531 1.93517303 C201.69981229 4.64440239 201.70140856 7.03142811 201.76330566 10.62145996 C200.41768167 13.56901728 199.67776022 15.16423268 196.76330566 16.62145996 C194.08960781 16.72806169 191.44145276 16.77367314 188.76712036 16.77536011 C187.93110554 16.77974236 187.09509072 16.78412462 186.23374212 16.78863966 C183.41628322 16.80205566 180.59885561 16.80821275 177.78137207 16.81433105 C175.76788694 16.82222968 173.75440323 16.83049848 171.74092102 16.83911133 C165.11558387 16.86535452 158.49024031 16.88063917 151.86486816 16.89489746 C149.58724335 16.9002558 147.30961859 16.9056333 145.03199387 16.91102982 C135.56141775 16.93266004 126.09084337 16.95139882 116.62024879 16.96265221 C103.0299138 16.9789052 89.4398641 17.01211426 75.84963667 17.06905305 C66.30311593 17.10769228 56.7566717 17.12727764 47.21007478 17.13257277 C41.50334021 17.13623389 35.79690976 17.1483361 30.09025955 17.18067551 C24.72384686 17.21065097 19.35792398 17.21710561 13.99144554 17.20529175 C12.01933534 17.20507014 10.04720309 17.21344655 8.07517052 17.23094559 C5.3873365 17.25350266 2.70129902 17.24540576 0.01345825 17.22946167 C-1.16348494 17.2502848 -1.16348494 17.2502848 -2.36420476 17.2715286 C-6.21134409 17.21510489 -7.88053374 16.95842693 -10.72107887 14.27095985 C-12.5874805 11.00823852 -12.8540356 9.32550756 -12.23669434 5.62145996 C-9.11581344 0.17049718 -5.85899435 -0.09363631 0 0 Z " fill="#000000" transform="translate(288.2366943359375,479.3785400390625)"/>
</svg>
