<svg version="1.1" id="Layer_1" xmlns="http://www.w3.org/2000/svg" xmlns:xlink="http://www.w3.org/1999/xlink" x="0px" y="0px"
	 width="100%" viewBox="0 0 560 512" enable-background="new 0 0 560 512" xml:space="preserve">
<path fill="#000000" opacity="1.000000" stroke="none" 
	d="
M276.064423,394.940155 
	C278.037689,397.003784 279.929596,398.681122 281.458130,400.641785 
	C284.125946,404.063812 284.180634,407.753235 281.527344,411.205353 
	C278.965546,414.538422 274.423950,415.337311 270.738220,413.096008 
	C269.060822,412.075958 267.615082,410.619446 266.210052,409.215057 
	C220.007507,363.032898 173.819870,316.835785 127.638298,270.632629 
	C120.660866,263.651947 120.723923,260.188660 127.825592,253.088821 
	C174.134903,206.791534 220.441071,160.491119 266.748138,114.191574 
	C267.454803,113.485023 268.109589,112.716713 268.873474,112.078972 
	C272.779785,108.817894 277.729523,108.883461 281.068695,112.201996 
	C284.279388,115.392838 284.188232,120.515991 280.586151,124.266609 
	C275.738892,129.313828 270.722260,134.198502 265.773499,139.148102 
	C226.182846,178.745483 186.588669,218.339310 147.011642,257.950287 
	C145.858124,259.104797 144.387558,260.038544 143.588150,262.841583 
	C187.415146,306.538818 231.617294,350.610107 276.064423,394.940155 
z"/>
<path fill="#000000" opacity="1.000000" stroke="none" 
	d="
M256.986755,251.996918 
	C303.406738,205.549774 349.572021,159.353348 395.754669,113.174286 
	C400.059509,108.869743 405.349792,108.528549 409.020813,112.172394 
	C412.578339,115.703651 412.089142,120.815483 407.591888,125.315575 
	C363.651123,169.284195 319.697754,213.240280 275.698944,257.150787 
	C274.299469,258.547455 272.373016,259.416046 270.832336,260.437866 
	C273.577026,265.173187 276.645844,267.524841 279.295868,270.180878 
	C321.428497,312.408936 363.621552,354.576691 405.795013,396.764038 
	C407.089752,398.059204 408.477570,399.302734 409.552368,400.768097 
	C412.116516,404.263947 412.173248,407.913208 409.423065,411.328461 
	C406.785858,414.603546 402.291016,415.321014 398.597443,413.014008 
	C396.929626,411.972260 395.494690,410.509979 394.088379,409.104156 
	C348.240753,363.272278 302.409241,317.424316 256.576080,271.578003 
	C248.446594,263.446198 248.472031,260.576843 256.986755,251.996918 
z"/>
</svg>