<?xml version="1.0" encoding="UTF-8"?>
<svg version="1.1" xmlns="http://www.w3.org/2000/svg" width="512" height="512">
<path d="M0 0 C1.37112946 -0.00855011 1.37112946 -0.00855011 2.7699585 -0.01727295 C4.69949204 -0.0266677 6.62904123 -0.03323477 8.55859375 -0.03710938 C11.43520202 -0.04671087 14.31106195 -0.07774407 17.1875 -0.109375 C37.1641983 -0.22411957 63.66010504 0.28156836 79.93920898 13.59765625 C85.04117872 18.69266981 85.43536599 24.21285341 86.171875 31.140625 C88.78499726 50.5719319 96.21274915 66.11298824 111.4453125 79.10546875 C124.39515727 88.84505788 137.38111132 92.87193705 153.296875 94.640625 C166.90276482 96.1674445 178.81630804 99.29148751 187.98046875 110.30078125 C197.34596752 123.54326954 197.52754874 136.60551479 197.046875 152.328125 C197.02581696 153.05233643 197.00475891 153.77654785 196.98306274 154.52270508 C194.20509129 244.26394819 172.66112803 348.90538746 105.234375 420.203125 C104.53489746 420.69143799 103.83541992 421.17975098 103.11474609 421.68286133 C100.06485678 425.7706317 100.63092912 430.12660637 100.625 435.09375 C100.60846375 436.15350037 100.59192749 437.21325073 100.57489014 438.30511475 C100.52632945 441.68784331 100.50502063 445.07012205 100.484375 448.453125 C100.45622217 450.74741856 100.42629572 453.0416911 100.39453125 455.3359375 C100.32056845 460.95825145 100.26897321 466.58043847 100.234375 472.203125 C101.05421875 472.15671875 101.8740625 472.1103125 102.71875 472.0625 C103.79640625 472.02640625 104.8740625 471.9903125 105.984375 471.953125 C107.05171875 471.90671875 108.1190625 471.8603125 109.21875 471.8125 C112.234375 472.203125 112.234375 472.203125 114.59179688 473.765625 C116.83917128 477.10061103 116.75166546 479.44873039 116.765625 483.453125 C116.7694519 484.14825195 116.77327881 484.84337891 116.77722168 485.55957031 C116.7799368 487.02540541 116.77260335 488.49128928 116.75585938 489.95703125 C116.73443919 492.19641475 116.75566943 494.43259087 116.78125 496.671875 C116.77860665 498.09896539 116.7734815 499.52605379 116.765625 500.953125 C116.76111328 502.24734375 116.75660156 503.5415625 116.75195312 504.875 C116.12704161 508.89329898 115.47549087 509.81059208 112.234375 512.203125 C109.42121946 512.59598001 106.99949237 512.74390949 104.1875 512.71105957 C103.37019409 512.71729953 102.55288818 512.7235395 101.71081543 512.72996855 C98.96837636 512.74594102 96.22682088 512.7332779 93.484375 512.72070312 C91.51985149 512.72612236 89.55533204 512.7332439 87.59082031 512.74194336 C82.25201484 512.76020323 76.91351801 512.75309813 71.57470703 512.74042702 C65.99250444 512.73031318 60.41032861 512.7396882 54.828125 512.74597168 C45.45307664 512.75325279 36.07815424 512.74364818 26.703125 512.72460938 C15.85805161 512.70283981 5.01327899 512.70989084 -5.83178711 512.731915 C-15.13633808 512.75005575 -24.4407984 512.75263379 -33.74536133 512.74216032 C-39.30555147 512.73591812 -44.86560015 512.73510976 -50.42578125 512.74830627 C-55.65269072 512.75984483 -60.87921169 512.75187543 -66.1060791 512.72872925 C-68.02656407 512.7234315 -69.94708162 512.72497408 -71.86755371 512.73377991 C-74.48506338 512.74467701 -77.1013206 512.73104311 -79.71875 512.71105957 C-80.48255981 512.71998246 -81.24636963 512.72890534 -82.0333252 512.73809862 C-85.48453468 512.68683013 -87.424808 512.45470992 -90.23620605 510.3793869 C-92.45315941 507.22480905 -92.28353726 504.77915071 -92.296875 500.953125 C-92.30261536 499.91043457 -92.30261536 499.91043457 -92.30847168 498.84667969 C-92.3111868 497.38084459 -92.30385335 495.91496072 -92.28710938 494.44921875 C-92.26568919 492.20983525 -92.28691943 489.97365913 -92.3125 487.734375 C-92.30985665 486.30728461 -92.3047315 484.88019621 -92.296875 483.453125 C-92.29236328 482.15890625 -92.28785156 480.8646875 -92.28320312 479.53125 C-91.68618447 475.69230742 -90.80187706 474.53386976 -87.765625 472.203125 C-84.05292717 470.61196879 -79.73081858 471.18707158 -75.765625 471.203125 C-75.60301665 464.72871449 -75.53656599 458.25817203 -75.53369141 451.78173828 C-75.52176253 449.58392375 -75.48865034 447.38610976 -75.43310547 445.18896484 C-74.62330249 430.89395875 -74.62330249 430.89395875 -80.81100464 418.67735291 C-83.35559818 416.36598539 -86.03905049 414.29749473 -88.765625 412.203125 C-91.16321246 409.56543498 -93.27758753 406.75900165 -95.390625 403.890625 C-95.93001709 403.1697168 -96.46940918 402.44880859 -97.02514648 401.70605469 C-135.41398303 349.94557045 -155.13517606 288.13961375 -165.765625 225.203125 C-165.92901367 224.24857422 -166.09240234 223.29402344 -166.26074219 222.31054688 C-167.26980872 216.2924287 -168.0712226 210.26517814 -168.765625 204.203125 C-168.90097656 203.04876953 -169.03632813 201.89441406 -169.17578125 200.70507812 C-171.07968066 183.88729999 -172.09109337 167.10501537 -172.2394104 150.17755127 C-172.25668847 148.2994912 -172.28171246 146.42148409 -172.31503296 144.54364014 C-172.5373244 130.51237782 -171.0626029 119.34211804 -161.70703125 108.16796875 C-152.72751944 99.08005237 -141.45527212 95.88430571 -129.078125 94.765625 C-108.98182087 92.56826495 -91.41382786 85.66053056 -77.765625 70.203125 C-68.10432864 58.07640894 -62.28059513 43.61836636 -61.390625 28.140625 C-60.88572202 21.73161459 -59.77291814 16.99607543 -54.95703125 12.5234375 C-40.38823517 1.77727966 -17.59290582 0.08794994 0 0 Z M-38.765625 23.203125 C-38.765625 23.863125 -38.765625 24.523125 -38.765625 25.203125 C-36.58190452 25.84120503 -34.39331697 26.4626249 -32.203125 27.078125 C-30.98496094 27.42617188 -29.76679688 27.77421875 -28.51171875 28.1328125 C-16.02518033 31.17275816 -3.50972634 31.549854 9.26660156 31.51879883 C11.96721071 31.51564504 14.6667131 31.53917606 17.3671875 31.56445312 C33.00532757 31.62076463 48.26958396 29.94477789 63.234375 25.203125 C63.234375 24.543125 63.234375 23.883125 63.234375 23.203125 C61.05065452 22.56504497 58.86206697 21.9436251 56.671875 21.328125 C55.45371094 20.98007812 54.23554688 20.63203125 52.98046875 20.2734375 C40.51237524 17.23764289 28.01466506 16.85637161 15.25708008 16.88745117 C12.56745398 16.8906009 9.87894362 16.86708835 7.18945312 16.84179688 C-8.36574352 16.785631 -23.9908687 18.0319603 -38.765625 23.203125 Z M-44.765625 41.203125 C-45.2915625 42.935625 -45.2915625 42.935625 -45.828125 44.703125 C-50.64590257 59.04336435 -56.99477782 72.55965798 -67.48046875 83.64453125 C-68.97768553 85.12361993 -68.97768553 85.12361993 -68.765625 87.203125 C-69.384375 87.491875 -70.003125 87.780625 -70.640625 88.078125 C-72.89888265 89.14032542 -72.89888265 89.14032542 -74.765625 91.203125 C-75.56587297 97.7119117 -74.48866564 104.21837025 -73.140625 110.578125 C-72.96023682 111.43970215 -72.77984863 112.3012793 -72.59399414 113.18896484 C-64.04012759 152.64793329 -45.03839943 190.7620802 -19.765625 222.203125 C-19.30833008 222.77256836 -18.85103516 223.34201172 -18.37988281 223.92871094 C-6.64681759 238.9097478 -6.64681759 238.9097478 9.55859375 247.7421875 C17.25910146 248.02220596 21.47119893 245.04271516 27.234375 240.203125 C27.9975 239.58953125 28.760625 238.9759375 29.546875 238.34375 C35.58926313 233.26646553 40.43789009 227.44566714 45.234375 221.203125 C45.65444824 220.66333008 46.07452148 220.12353516 46.50732422 219.56738281 C72.14577539 186.46649776 100.98580671 136.5307795 99.59765625 93.1328125 C99.32512415 90.94106699 99.32512415 90.94106699 97.359375 88.578125 C95.37636113 87.02204124 95.37636113 87.02204124 93.234375 87.203125 C92.97011719 86.6153125 92.70585937 86.0275 92.43359375 85.421875 C91.19235593 83.12538288 89.84788662 81.58244147 88.046875 79.703125 C78.2650467 68.70111022 73.67270169 54.98529734 69.234375 41.203125 C68.698125 41.31269531 68.161875 41.42226563 67.609375 41.53515625 C62.13618983 42.64239601 56.65620672 43.71506334 51.171875 44.765625 C49.88152344 45.01441406 48.59117187 45.26320313 47.26171875 45.51953125 C39.67594601 46.86952448 32.16649158 47.36776768 24.46875 47.40625 C23.09762054 47.41480011 23.09762054 47.41480011 21.6987915 47.42352295 C19.76925796 47.4329177 17.83970877 47.43948477 15.91015625 47.44335938 C13.03354798 47.45296087 10.15768805 47.48399407 7.28125 47.515625 C-10.4573575 47.61636768 -27.51613654 45.29081891 -44.765625 41.203125 Z M-97.890625 105.015625 C-107.4111353 109.20127164 -117.15912128 110.8694337 -127.46606445 111.91162109 C-138.15991542 113.00633158 -144.2255809 114.80628271 -151.3203125 123.10546875 C-154.58290315 127.8406341 -155.07256328 132.20808643 -155.06640625 137.84375 C-155.07200562 138.59012222 -155.07760498 139.33649445 -155.08337402 140.10548401 C-155.09535754 142.55489873 -155.0889462 145.00370976 -155.078125 147.453125 C-155.07630219 148.29813568 -155.07447937 149.14314636 -155.07260132 150.01376343 C-154.76295682 235.7590649 -132.64613199 333.49389408 -71.765625 404.203125 C-70.79109375 405.36328125 -70.79109375 405.36328125 -69.796875 406.546875 C-65.81189729 411.25639411 -61.53045655 415.29053974 -56.765625 419.203125 C-55.75628906 420.05003906 -54.74695313 420.89695312 -53.70703125 421.76953125 C-30.74742484 440.68390538 -5.559956 449.3171013 24.234375 447.203125 C46.44021392 444.69751094 65.65346504 432.45006523 82.234375 418.203125 C83.11351562 417.44773437 83.99265625 416.69234375 84.8984375 415.9140625 C90.1227273 411.32110681 94.83336881 406.5840769 99.234375 401.203125 C99.66476074 400.68508301 100.09514648 400.16704102 100.53857422 399.63330078 C148.5129904 341.78132109 168.81541876 265.50767434 177.234375 192.203125 C177.35441895 191.21876465 177.47446289 190.2344043 177.59814453 189.22021484 C179.11014751 176.64873256 179.47451377 164.07311568 179.58483887 151.42211914 C179.60104807 149.66717056 179.62315433 147.91226539 179.65148926 146.1574707 C179.68746166 143.67359425 179.69528091 141.19113926 179.6953125 138.70703125 C179.70958282 137.96828262 179.72385315 137.229534 179.73855591 136.46839905 C179.68299628 129.97980168 177.55021721 124.84585548 173.26953125 119.9609375 C172.61855469 119.42210938 171.96757812 118.88328125 171.296875 118.328125 C170.64847656 117.77382812 170.00007813 117.21953125 169.33203125 116.6484375 C165.46348958 113.98296186 161.6954969 112.96800069 157.05859375 112.52734375 C156.0730249 112.42421875 155.08745605 112.32109375 154.07202148 112.21484375 C153.03247314 112.10785156 151.9929248 112.00085938 150.921875 111.890625 C138.16112371 110.44357909 127.00015425 107.35908431 115.234375 102.203125 C115.08742188 103.18667969 114.94046875 104.17023438 114.7890625 105.18359375 C106.86763695 155.32603342 78.43574153 222.49050104 36.44335938 253.52685547 C31.26215156 257.1007052 25.9284993 260.50296286 20.234375 263.203125 C20.234375 263.863125 20.234375 264.523125 20.234375 265.203125 C21.01941406 265.5434375 21.80445313 265.88375 22.61328125 266.234375 C31.61085767 270.38540412 37.34962807 274.74723434 41.671875 283.765625 C44.53119199 291.78656617 44.81093857 301.42093618 41.484375 309.328125 C39.76057048 312.59719714 37.62629194 315.38408004 35.234375 318.203125 C35.234375 318.863125 35.234375 319.523125 35.234375 320.203125 C34.6465625 320.491875 34.05875 320.780625 33.453125 321.078125 C32.12290892 321.75260076 30.80474842 322.45308956 29.515625 323.203125 C21.44894278 327.7317887 12.5579804 329.22416423 3.55078125 326.96875 C-5.4587408 323.99089786 -11.72610672 319.42749945 -16.46484375 311.11328125 C-20.20055925 302.75559943 -20.65516342 293.85692212 -17.765625 285.203125 C-14.29474351 276.20102141 -7.60178338 269.81077023 1.171875 265.890625 C1.8525 265.66375 2.533125 265.436875 3.234375 265.203125 C3.234375 264.213125 3.234375 263.223125 3.234375 262.203125 C2.62851563 261.935 2.02265625 261.666875 1.3984375 261.390625 C-38.14596249 242.89601331 -64.14594138 187.97499943 -78.62451172 149.36450195 C-84.17611282 133.98416762 -88.80853644 118.47324926 -90.765625 102.203125 C-93.06786788 102.203125 -95.88628838 104.09416823 -97.890625 105.015625 Z M-1.078125 288.078125 C-3.17243398 291.95647497 -4.26471275 294.77007221 -3.359375 299.18359375 C-1.68631716 304.49156892 0.71626866 307.03083757 5.234375 310.203125 C8.948983 312.060429 13.18030618 311.64595406 17.234375 311.203125 C22.07296048 308.87343569 24.90468569 306.04171048 27.234375 301.203125 C28.0315389 296.20864911 27.81345393 292.40582739 25.609375 287.828125 C22.36663855 284.24404787 19.76961604 281.60777259 14.8359375 280.8203125 C7.56176873 280.49264724 3.5569354 282.31561748 -1.078125 288.078125 Z M78.98291016 441.99707031 C52.6084752 459.56106447 22.46227294 468.15215317 -9.33544922 462.07446289 C-12.86488151 461.27095384 -16.31484575 460.29297847 -19.765625 459.203125 C-20.42353027 459.00477051 -21.08143555 458.80641602 -21.75927734 458.60205078 C-32.99494212 455.13111674 -42.82962729 449.46216812 -52.82128906 443.34472656 C-54.75393579 442.20998823 -56.76107927 441.20539786 -58.765625 440.203125 C-58.765625 450.433125 -58.765625 460.663125 -58.765625 471.203125 C-11.575625 471.203125 35.614375 471.203125 84.234375 471.203125 C84.234375 460.643125 84.234375 450.083125 84.234375 439.203125 C82.19138598 439.203125 80.62820866 440.89631849 78.98291016 441.99707031 Z M-74.765625 488.203125 C-74.765625 490.843125 -74.765625 493.483125 -74.765625 496.203125 C-17.015625 496.203125 40.734375 496.203125 100.234375 496.203125 C100.234375 493.563125 100.234375 490.923125 100.234375 488.203125 C42.484375 488.203125 -15.265625 488.203125 -74.765625 488.203125 Z " fill="#000000" transform="translate(243.765625,-0.203125)"/>
</svg>
