<?xml version="1.0" encoding="UTF-8"?>
<svg version="1.1" xmlns="http://www.w3.org/2000/svg" width="512" height="512">
<path d="M0 0 C0.8390973 -0.00205263 1.6781946 -0.00410527 2.5427191 -0.0062201 C5.37911638 -0.01191401 8.21546547 -0.01042992 11.05186749 -0.00901413 C13.09608205 -0.01159639 15.1402961 -0.01460916 17.18450946 -0.01801753 C22.82133086 -0.02610703 28.45813954 -0.02787818 34.09496605 -0.028615 C40.16666293 -0.03046216 46.23835315 -0.03800774 52.3100462 -0.04475021 C66.2879892 -0.0590569 80.26592909 -0.06486172 94.24387757 -0.06944216 C101.14893089 -0.07177705 108.05398338 -0.07537956 114.95903605 -0.07913754 C138.58869975 -0.09197341 162.21836298 -0.10269292 185.84803009 -0.10614014 C187.33168711 -0.10636177 188.81534412 -0.10658355 190.29900114 -0.10680549 C191.78627098 -0.10702613 193.27354083 -0.10724661 194.76081067 -0.10746694 C197.74460431 -0.10790949 200.72839795 -0.10835661 203.71219158 -0.10880661 C204.45200034 -0.108916 205.19180911 -0.10902539 205.95403632 -0.1091381 C229.94895989 -0.11276972 253.94385327 -0.12869354 277.93876528 -0.15199697 C303.29869013 -0.17658113 328.65859772 -0.1903123 354.01853484 -0.19150805 C356.80124899 -0.19167951 359.58396314 -0.19189494 362.36667728 -0.19214249 C363.39447518 -0.19222614 363.39447518 -0.19222614 364.44303668 -0.19231148 C375.47974973 -0.19346312 386.51643185 -0.20449462 397.55313445 -0.21902954 C408.64181323 -0.23338065 419.73046062 -0.23638641 430.81914834 -0.22858956 C436.82891728 -0.22467226 442.8385819 -0.22566523 448.84833813 -0.23964691 C454.34620011 -0.25232107 459.84387871 -0.25124565 465.34174021 -0.2390562 C467.33434342 -0.23708791 469.32695934 -0.2402294 471.31954465 -0.24890056 C474.02168054 -0.25991821 476.72316064 -0.25255826 479.42527771 -0.24050903 C480.20441342 -0.24810423 480.98354914 -0.25569942 481.78629503 -0.26352477 C487.57814457 -0.2075174 491.76414043 0.99416763 495.90140057 5.13142776 C496.1555509 7.92720973 496.1555509 7.92720973 496.16146278 11.58206367 C496.16526845 12.2551457 496.16907413 12.92822773 496.17299512 13.62170619 C496.18338254 15.89942679 496.17939172 18.17690147 496.17555523 20.45463943 C496.18000377 22.09518782 496.18531653 23.73573405 496.19142395 25.37627709 C496.20566051 29.90187873 496.20726618 34.4274119 496.20682704 38.95303273 C496.20847028 43.82702649 496.22152747 48.70099161 496.23301983 53.57497025 C496.25590688 64.24006909 496.26379433 74.90514808 496.26884627 85.57026815 C496.27209881 92.22480409 496.27861857 98.87933422 496.28584766 105.53386688 C496.30541795 123.9448128 496.3218198 142.3557533 496.3247242 160.76671028 C496.32491177 161.94574307 496.32509934 163.12477586 496.32529259 164.33953691 C496.32565885 166.72990425 496.32602255 169.1202716 496.3263837 171.51063894 C496.32656651 172.69728148 496.32674932 173.88392402 496.32693768 175.10652542 C496.3272085 176.88865207 496.3272085 176.88865207 496.32748479 178.70678128 C496.33102814 197.96778433 496.35805863 217.22867569 496.39543556 236.48963998 C496.43346991 256.24686544 496.45288131 276.0040354 496.45318371 295.7612983 C496.45376936 306.86147492 496.46233048 317.96151832 496.49118137 329.06166077 C496.51563013 338.51183529 496.5230223 347.961828 496.50793385 357.41202556 C496.50073833 362.23685291 496.5017354 367.06132079 496.52434444 371.8861084 C496.54482633 376.29909506 496.54243615 380.71144341 496.5214696 385.12442233 C496.51795388 386.72469701 496.52297202 388.32501675 496.53717404 389.92523228 C496.55518812 392.09397574 496.54265714 394.26043798 496.52222633 396.42910957 C496.52304079 397.63553608 496.52385525 398.84196258 496.52469438 400.08494747 C495.90140057 403.13142776 495.90140057 403.13142776 493.55009896 405.48782265 C488.97804474 408.32493378 485.01706033 408.27459168 479.80280113 408.26285553 C478.96370383 408.26490816 478.12460653 408.2669608 477.26008204 408.26907563 C474.42368476 408.27476954 471.58733567 408.27328545 468.75093365 408.27186966 C466.70671908 408.27445192 464.66250503 408.27746469 462.61829168 408.28087306 C456.98147028 408.28896256 451.3446616 408.29073371 445.70783508 408.29147053 C439.6361382 408.29331769 433.56444798 408.30086327 427.49275494 408.30760574 C413.51481194 408.32191243 399.53687204 408.32771725 385.55892356 408.33229769 C378.65387024 408.33463258 371.74881776 408.33823509 364.84376509 408.34199307 C341.21410139 408.35482894 317.58443815 408.36554844 293.95477104 408.36899567 C292.47111403 408.3692173 290.98745701 408.36943908 289.50379999 408.36966102 C288.01653015 408.36988166 286.5292603 408.37010214 285.04199046 408.37032247 C282.05819682 408.37076502 279.07440319 408.37121214 276.09060955 408.37166214 C275.35080079 408.37177153 274.61099203 408.37188092 273.84876482 408.37199363 C249.85384124 408.37562525 225.85894786 408.39154907 201.86403585 408.4148525 C176.504111 408.43943666 151.14420341 408.45316783 125.78426629 408.45436358 C123.00155214 408.45453504 120.21883799 408.45475047 117.43612385 408.45499802 C116.40832595 408.45508167 116.40832595 408.45508167 115.35976446 408.45516701 C104.3230514 408.45631865 93.28636928 408.46735015 82.24966668 408.48188507 C71.1609879 408.49623618 60.07234052 408.49924194 48.98365279 408.49144509 C42.97388386 408.48752779 36.96421923 408.48852076 30.95446301 408.50250244 C25.45660102 408.5151766 19.95892242 408.51410118 14.46106092 408.50191173 C12.46845771 408.49994344 10.4758418 408.50308493 8.48325648 408.51175609 C5.78112059 408.52277374 3.07964049 408.51541379 0.37752342 408.50336456 C-0.40161229 408.51095976 -1.18074801 408.51855495 -1.98349389 408.5263803 C-7.77534344 408.47037293 -11.9613393 407.2686879 -16.09859943 403.13142776 C-16.35274976 400.33564579 -16.35274976 400.33564579 -16.35866165 396.68079185 C-16.36246732 396.00770983 -16.36627299 395.3346278 -16.37019399 394.64114934 C-16.38058141 392.36342874 -16.37659059 390.08595406 -16.3727541 387.80821609 C-16.37720264 386.16766771 -16.3825154 384.52712148 -16.38862282 382.88657844 C-16.40285938 378.3609768 -16.40446505 373.83544363 -16.40402591 369.3098228 C-16.40566915 364.43582904 -16.41872634 359.56186392 -16.4302187 354.68788528 C-16.45310575 344.02278644 -16.46099319 333.35770745 -16.46604514 322.69258738 C-16.46929768 316.03805144 -16.47581744 309.38352131 -16.48304653 302.72898865 C-16.50261682 284.31804273 -16.51901867 265.90710223 -16.52192307 247.49614525 C-16.52211064 246.31711246 -16.5222982 245.13807967 -16.52249146 243.92331862 C-16.52285772 241.53295128 -16.52322142 239.14258393 -16.52358257 236.75221659 C-16.52376538 235.56557405 -16.52394819 234.37893151 -16.52413654 233.15633011 C-16.52431709 231.96824567 -16.52449764 230.78016124 -16.52468366 229.55607425 C-16.528227 210.2950712 -16.5552575 191.03417984 -16.59263443 171.77321555 C-16.63066878 152.01599009 -16.65008018 132.25882013 -16.65038258 112.50155723 C-16.65096823 101.40138061 -16.65952934 90.30133721 -16.68838024 79.20119476 C-16.712829 69.75102024 -16.72022116 60.30102753 -16.70513272 50.85082997 C-16.6979372 46.02600262 -16.69893427 41.20153474 -16.72154331 36.37674713 C-16.7420252 31.96376047 -16.73963502 27.55141212 -16.71866847 23.1384332 C-16.71515275 21.53815852 -16.72017089 19.93783878 -16.73437291 18.33762325 C-16.75238699 16.16887979 -16.73985601 14.00241755 -16.7194252 11.83374596 C-16.72023966 10.62731945 -16.72105411 9.42089295 -16.72189325 8.17790806 C-16.09859943 5.13142776 -16.09859943 5.13142776 -13.74729782 2.77503288 C-9.17524361 -0.06207825 -5.2142592 -0.01173615 0 0 Z M1.90140057 19.13142776 C1.90140057 141.23142776 1.90140057 263.33142776 1.90140057 389.13142776 C158.98140057 389.13142776 316.06140057 389.13142776 477.90140057 389.13142776 C477.90140057 267.03142776 477.90140057 144.93142776 477.90140057 19.13142776 C320.82140057 19.13142776 163.74140057 19.13142776 1.90140057 19.13142776 Z " fill="#000000" transform="translate(16.098599433898926,51.86857223510742)"/>
<path d="M0 0 C6.11793868 3.95299477 11.3051341 9.13173685 16.35546875 14.34765625 C18.00841603 16.00845601 19.72251638 17.53622391 21.5 19.0625 C25.55934609 22.5611193 29.46651873 26.21013287 33.375 29.875 C38.36351257 34.5507359 43.3869886 39.17710902 48.484375 43.734375 C52.03268798 46.9300606 55.53577726 50.17375265 59.04125977 53.41625977 C62.70710918 56.80702272 66.38021607 60.18959077 70.0625 63.5625 C70.55347168 64.01222168 71.04444336 64.46194336 71.55029297 64.92529297 C72.53884515 65.83062602 73.52745177 66.73589963 74.51611328 67.64111328 C76.51082518 69.46779417 78.50459907 71.29549705 80.49829102 73.12329102 C81.49739624 74.03923222 82.49658211 74.95508545 83.49584961 75.87084961 C86.02196074 78.18593628 88.54705298 80.50211788 91.0703125 82.8203125 C92.08852473 83.75522677 93.10675375 84.69012277 94.125 85.625 C94.86327026 86.30357056 94.86327026 86.30357056 95.61645508 86.99584961 C99.74758231 90.78608184 103.93209266 94.51426992 108.13671875 98.22265625 C110.91067238 100.86867072 110.98635982 101.86132486 111.375 105.8125 C111.31327317 109.2013027 110.98866791 110.01699814 109 113 C105.99468238 115.00354508 103.89408721 115.97329073 100.23828125 115.74609375 C95.20200183 114.06733394 91.67356563 109.66763095 88 106 C86.78149294 104.92529191 85.55290086 103.86186298 84.3125 102.8125 C79.64208617 98.74838736 75.15114049 94.49250147 70.63452148 90.25952148 C66.30770005 86.2082732 61.93460015 82.21636437 57.515625 78.265625 C53.96731202 75.0699394 50.46422274 71.82624735 46.95874023 68.58374023 C43.29289082 65.19297728 39.61978393 61.81040923 35.9375 58.4375 C35.44652832 57.98777832 34.95555664 57.53805664 34.44970703 57.07470703 C33.46115485 56.16937398 32.47254823 55.26410037 31.48388672 54.35888672 C29.48909001 52.53212817 27.49522812 50.70435116 25.50146484 48.87646484 C24.50320043 47.96130797 23.50482861 47.04626826 22.50634766 46.13134766 C19.96714242 43.80450327 17.42949397 41.47599744 14.89453125 39.14453125 C8.97884704 33.70691037 3.02837986 28.31289033 -3 23 C-8.14842827 28.05519717 -13.19986198 33.12174341 -17.890625 38.60546875 C-20.85544917 41.97109323 -23.93059203 45.22987542 -27 48.5 C-32.33336569 54.17444613 -32.33336569 54.17444613 -37.5 60 C-41.48511808 64.6357496 -45.70566456 69.05365889 -49.88671875 73.51171875 C-53.34454882 77.20547752 -56.72951399 80.93971577 -60.02734375 84.77734375 C-63.55142172 88.74803754 -67.20869043 92.5973809 -70.8515625 96.45898438 C-74.69076584 100.54296914 -78.38066634 104.71960083 -82 109 C-80.55972632 112.30047378 -78.77749121 114.46159068 -76.22460938 116.98657227 C-75.45040649 117.75739639 -74.67620361 118.52822052 -73.87854004 119.32240295 C-72.62381897 120.55693459 -72.62381897 120.55693459 -71.34375 121.81640625 C-70.48567749 122.66927719 -69.62760498 123.52214813 -68.74353027 124.40086365 C-66.0003833 127.1261917 -63.25065187 129.84474837 -60.5 132.5625 C-57.75021796 135.28467378 -55.00189804 138.00828321 -52.25646973 140.73484802 C-50.54754097 142.43151198 -48.83594627 144.12549574 -47.12145996 145.81654358 C-45.96015564 146.96805153 -45.96015564 146.96805153 -44.77539062 148.14282227 C-44.09303345 148.81692642 -43.41067627 149.49103058 -42.7076416 150.18556213 C-40.11886185 152.93624471 -39.0471402 154.57573821 -38.625 158.375 C-39.05828674 162.5634385 -40.06240039 164.06240039 -43 167 C-46.14602702 168.57301351 -48.64989333 168.95663879 -52 168 C-54.27035332 166.2739954 -54.27035332 166.2739954 -56.70285034 164.00099182 C-58.02470148 162.77049449 -58.02470148 162.77049449 -59.37325668 161.51513863 C-63.21196569 157.83952814 -67.00547178 154.12626378 -70.75439453 150.35913086 C-71.56540115 149.54827026 -72.37640778 148.73740967 -73.21199036 147.90197754 C-75.85464573 145.25863331 -78.49375542 142.61178 -81.1328125 139.96484375 C-82.97918124 138.11660717 -84.82577293 136.26859331 -86.6725769 134.42079163 C-91.0127172 130.07756335 -95.35030573 125.73179614 -99.6869458 121.38507324 C-104.63066482 116.43011371 -109.57727897 111.47804863 -114.52411866 106.52620494 C-124.685933 96.35398367 -134.84417066 86.17819645 -145 76 C-146.26728865 76.93778202 -147.53281261 77.87794902 -148.79760742 78.8190918 C-149.5025383 79.34238571 -150.20746918 79.86567963 -150.9337616 80.40483093 C-153.902691 82.69689188 -156.60197942 85.22516546 -159.3125 87.8125 C-163.24595202 91.50897649 -167.21806022 95.06443752 -171.4375 98.4375 C-176.45922225 102.46511129 -181.12582761 106.79345856 -185.80834961 111.20288086 C-190.10144 115.22358045 -194.56255492 118.95004394 -199.15625 122.625 C-202.55635072 125.46464456 -205.77586445 128.46388099 -209 131.5 C-213.05876728 135.32207891 -217.14296809 139.01437447 -221.5 142.5 C-227.19631705 147.06041926 -232.47319066 152.01734663 -237.79296875 157.00390625 C-242.4639332 161.38116714 -247.29747541 165.5514289 -252.171875 169.69921875 C-253.36486315 170.71581756 -254.55756205 171.73275588 -255.75 172.75 C-256.35368408 173.26481934 -256.95736816 173.77963867 -257.5793457 174.31005859 C-261.52486386 177.69102935 -265.38098863 181.15122905 -269.1875 184.6875 C-274.60639955 189.70070653 -280.23074844 194.39735855 -286 199 C-286.87785156 199.72574219 -287.75570312 200.45148438 -288.66015625 201.19921875 C-291.26420058 203.203333 -292.73200725 203.83660036 -296 204 C-298.99668019 203.21515519 -300.5962881 202.41813018 -302.75 200.1875 C-304.21571153 197.62250483 -304.85882743 195.96462394 -305 193 C-303.08086098 188.34195728 -300.76878327 185.49066324 -297 182.1875 C-296.01644531 181.32125 -295.03289062 180.455 -294.01953125 179.5625 C-291.27177509 177.23063966 -288.49336781 174.94882161 -285.6875 172.6875 C-280.63083286 168.61186956 -275.91651697 164.2463704 -271.19213867 159.79760742 C-266.89891399 155.77670758 -262.43762791 152.05010233 -257.84375 148.375 C-254.44364928 145.53535544 -251.22413555 142.53611901 -248 139.5 C-243.10900556 134.89422554 -238.09232912 130.5738633 -232.84375 126.375 C-229.44364928 123.53535544 -226.22413555 120.53611901 -223 117.5 C-218.10900556 112.89422554 -213.09232912 108.5738633 -207.84375 104.375 C-204.44364928 101.53535544 -201.22413555 98.53611901 -198 95.5 C-193.94123272 91.67792109 -189.85703191 87.98562553 -185.5 84.5 C-179.81090321 79.94536121 -174.54039317 74.99499821 -169.2265625 70.015625 C-165.56187821 66.58170362 -161.83758913 63.23973314 -158 60 C-156.91138672 59.02353516 -156.91138672 59.02353516 -155.80078125 58.02734375 C-149.38914284 52.55186986 -149.38914284 52.55186986 -144.9375 52.125 C-141.52658407 52.55743304 -139.80403067 53.73991169 -137.28125 56.03344727 C-136.58314209 56.66783722 -135.88503418 57.30222717 -135.16577148 57.95584106 C-131.56589676 61.35357538 -128.05017381 64.82731687 -124.5625 68.33984375 C-123.79695801 69.10680069 -123.03141602 69.87375763 -122.24267578 70.66395569 C-119.82606803 73.08610881 -117.41298274 75.51173612 -115 77.9375 C-113.35049314 79.59202893 -111.70075571 81.24632802 -110.05078125 82.90039062 C-106.03118629 86.93094202 -102.01446831 90.96434272 -98 95 C-95.0546829 93.59002815 -93.07730307 92.28940325 -90.86328125 89.875 C-90.2906958 89.2560083 -89.71811035 88.6370166 -89.12817383 87.99926758 C-88.52900146 87.33950928 -87.9298291 86.67975098 -87.3125 86 C-86.68819092 85.32155029 -86.06388184 84.64310059 -85.4206543 83.9440918 C-81.3156495 79.47415054 -77.24460282 74.97316951 -73.19921875 70.44921875 C-70.69264435 67.65770517 -68.16188649 64.88892475 -65.625 62.125 C-65.16472412 61.62347412 -64.70444824 61.12194824 -64.23022461 60.60522461 C-62.3487045 58.55596319 -60.46632592 56.50749124 -58.58398438 54.45898438 C-53.8876188 49.34689626 -49.1967486 44.23114844 -44.5625 39.0625 C-41.07551811 35.176293 -37.54663607 31.33161373 -34 27.5 C-28.10221193 21.12712264 -22.2732929 14.69532123 -16.515625 8.1953125 C-15.70609375 7.28523437 -14.8965625 6.37515625 -14.0625 5.4375 C-12.96615234 4.19806641 -12.96615234 4.19806641 -11.84765625 2.93359375 C-8.46770111 -0.6035686 -4.66619533 -1.17032407 0 0 Z " fill="#000000" transform="translate(357,203)"/>
<path d="M0 0 C1.38810673 1.00293838 2.76449196 2.02243098 4.125 3.0625 C5.176875 3.84625 6.22875 4.63 7.3125 5.4375 C17.77370143 15.201288 22.96934305 28.09344207 23.5 42.25 C23.22045991 56.34210901 17.86917108 68.16191111 8.3125 78.375 C-2.30711791 88.37958213 -15.1227327 92.48682377 -29.51953125 92.34375 C-42.69767962 91.23917877 -54.78982847 85.64706785 -63.875 76.0625 C-74.17022143 62.86654644 -77.29080946 49.5637592 -75.875 33.0625 C-73.39681773 20.24917122 -66.0996573 8.97440009 -55.52734375 1.375 C-53.03130942 -0.20727216 -50.5090877 -1.59867046 -47.875 -2.9375 C-47.08996094 -3.35257813 -46.30492188 -3.76765625 -45.49609375 -4.1953125 C-31.2479085 -10.57243454 -12.88031299 -8.23914236 0 0 Z M-50.875 23.0625 C-56.61007991 30.64814348 -58.69492138 38.12591807 -57.40625 47.5859375 C-55.74114748 55.34825368 -51.88431305 61.85820813 -45.875 67.0625 C-37.28766558 72.32191606 -29.91296627 73.88049492 -19.875 73.0625 C-10.92545094 70.80813711 -4.12171361 64.279046 1.1171875 56.93359375 C5.05405547 49.6244474 5.30318436 41.31213156 3.5078125 33.3125 C0.75031647 25.5036617 -4.49210558 18.56351257 -11.875 14.625 C-26.37211159 8.38753941 -40.43598329 10.93066977 -50.875 23.0625 Z " fill="#000000" transform="translate(167.875,156.9375)"/>
</svg>
