<?xml version="1.0" standalone="no"?>
<!DOCTYPE svg PUBLIC "-//W3C//DTD SVG 20010904//EN"
 "http://www.w3.org/TR/2001/REC-SVG-20010904/DTD/svg10.dtd">
<svg version="1.0" xmlns="http://www.w3.org/2000/svg"
 width="599.000000pt" height="570.000000pt" viewBox="0 0 599.000000 570.000000"
 preserveAspectRatio="xMidYMid meet">

<g transform="translate(0.000000,570.000000) scale(0.100000,-0.100000)"
fill="#000000" stroke="none">
<path d="M1525 4255 c-17 -16 -25 -35 -25 -57 0 -30 58 -91 702 -735 l703
-703 -703 -703 c-644 -644 -702 -705 -702 -735 0 -44 38 -82 82 -82 30 0 93
60 775 743 700 699 743 744 743 777 0 33 -43 78 -743 777 -682 683 -745 743
-775 743 -22 0 -41 -8 -57 -25z"/>
<path d="M2805 4255 c-17 -16 -25 -35 -25 -57 0 -30 58 -91 702 -735 l703
-703 -703 -703 c-644 -644 -702 -705 -702 -735 0 -44 38 -82 82 -82 30 0 93
60 775 743 700 699 743 744 743 777 0 33 -43 78 -743 777 -682 683 -745 743
-775 743 -22 0 -41 -8 -57 -25z"/>
</g>
</svg>
