<?xml version="1.0" encoding="UTF-8"?>
<svg version="1.1" xmlns="http://www.w3.org/2000/svg" width="512" height="512">
<path d="M0 0 C1.15371094 0.61359375 2.30742187 1.2271875 3.49609375 1.859375 C51.47357116 28.21703569 87.82158834 73.64292309 103.88427734 125.87548828 C107.62823388 138.74925459 110.33432222 151.70112239 112 165 C112.19722656 166.485 112.19722656 166.485 112.3984375 168 C118.29531008 222.82497754 101.16960448 279.05489517 67 322 C30.51627757 367.00316465 -21.08626787 396.07465272 -79 402.3125 C-136.43058238 407.52142735 -192.82497152 390.85280725 -237.40234375 354.22265625 C-281.10874088 317.7531407 -309.36742145 265.52154013 -314.53344727 208.56396484 C-318.94578087 149.93050405 -301.25498816 93.91751117 -263.25 49.0625 C-227.8281559 7.92800423 -178.73559233 -17.26964388 -125 -24 C-124.01 -24.13148437 -123.02 -24.26296875 -122 -24.3984375 C-80.33456306 -28.87989438 -36.71765532 -19.99348376 0 0 Z M-228 31 C-228.58797363 31.48645996 -229.17594727 31.97291992 -229.78173828 32.47412109 C-240.64631942 41.51788689 -250.20838264 50.88634417 -259 62 C-259.81726563 63.01191406 -260.63453125 64.02382812 -261.4765625 65.06640625 C-271.5315401 77.66048021 -279.11679013 91.47003294 -286 106 C-286.78503906 107.62228516 -286.78503906 107.62228516 -287.5859375 109.27734375 C-309.72505576 157.59684788 -308.34014981 214.04638182 -290.08251953 263.21044922 C-282.64172739 282.38466911 -272.11737221 300.17199155 -259 316 C-258.51354004 316.58797363 -258.02708008 317.17594727 -257.52587891 317.78173828 C-248.48211311 328.64631942 -239.11365583 338.20838264 -228 347 C-226.48212891 348.22589844 -226.48212891 348.22589844 -224.93359375 349.4765625 C-183.8287179 382.29426765 -129.62126162 396.2338926 -77.6796875 390.72265625 C-25.07599741 384.38990589 24.07257588 357.62420225 57 316 C57.81726563 314.98808594 58.63453125 313.97617187 59.4765625 312.93359375 C92.20942874 271.93498045 106.07915817 218.01060868 100.78515625 166.19921875 C94.54590954 113.38578156 67.77677958 64.04812261 26 31 C24.98808594 30.18273437 23.97617187 29.36546875 22.93359375 28.5234375 C-47.69681808 -27.86714835 -154.16622095 -27.80484769 -228 31 Z " fill="#000000" transform="translate(357,67)"/>
<path d="M0 0 C4.09414525 3.56989494 8.06450029 7.25661788 12 11 C12.64453125 11.59167969 13.2890625 12.18335938 13.953125 12.79296875 C40.59266344 38.00094321 56.50048551 77.57851946 58.1262207 113.81323242 C59.30524521 160.03473618 45.47243542 201.51395519 13.51171875 235.359375 C12.26841797 236.66648437 12.26841797 236.66648437 11 238 C10.11248047 238.96679688 10.11248047 238.96679688 9.20703125 239.953125 C-15.88340718 266.46845252 -55.71717216 282.52546267 -91.80493164 284.12426758 C-138.02071112 285.32976679 -179.52324653 271.46366147 -213.359375 239.51171875 C-214.66648437 238.26841797 -214.66648437 238.26841797 -216 237 C-216.96679688 236.11248047 -216.96679688 236.11248047 -217.953125 235.20703125 C-244.60276672 209.98949644 -260.54855391 170.31868885 -262.1262207 134.10253906 C-262.85170046 105.53475861 -258.71151373 78.79586102 -246 53 C-245.44441406 51.87207031 -244.88882813 50.74414062 -244.31640625 49.58203125 C-229.00425139 19.98324692 -204.59918822 -3.89914189 -175 -19 C-174.39510742 -19.31662598 -173.79021484 -19.63325195 -173.16699219 -19.95947266 C-118.63297157 -48.29171614 -46.68018381 -39.70221819 0 0 Z M-213.67578125 24.89453125 C-239.46847478 54.85898236 -253.39959163 93.38693949 -251 133 C-249.37449764 153.45135596 -244.45564525 172.77905529 -235 191 C-234.47921875 192.07121094 -233.9584375 193.14242187 -233.421875 194.24609375 C-216.29886834 228.2011822 -184.29758552 253.70919354 -148.62890625 265.921875 C-112.84526306 277.23890025 -72.4600277 275.77413675 -38.61328125 258.90625 C-37.40750067 258.27340551 -36.20311234 257.63790252 -35 257 C-34.34692871 256.66097656 -33.69385742 256.32195312 -33.02099609 255.97265625 C2.6167622 237.34789815 28.9668997 205.37385035 41 167 C51.6818187 130.50378612 48.56346596 90.84464347 31 57 C30.47921875 55.92878906 29.9584375 54.85757813 29.421875 53.75390625 C12.43535503 20.06947223 -19.1995781 -5.27097253 -54.51171875 -17.6171875 C-111.74183113 -36.16483336 -173.04605456 -19.05674973 -213.67578125 24.89453125 Z " fill="#000000" transform="translate(358,132)"/>
</svg>
