<?xml version="1.0" encoding="UTF-8"?>
<svg version="1.1" xmlns="http://www.w3.org/2000/svg" width="512" height="512">
<path d="M0 0 C4.19769259 0.0113935 8.39513142 0.00460314 12.5928154 -0.0068779 C33.49273598 -0.05534172 54.2029162 0.51972296 75.0390625 2.26074219 C75.94487061 2.33635376 76.85067871 2.41196533 77.78393555 2.48986816 C82.79484238 2.92216714 87.79279355 3.43449241 92.7890625 4.01074219 C93.88281189 4.13479431 93.88281189 4.13479431 94.99865723 4.26135254 C209.84942065 17.42025051 209.84942065 17.42025051 240.0390625 54.26074219 C243.08054303 59.11525011 245.14372239 63.92435258 245.21606445 69.68115234 C245.22889969 70.57283112 245.24173492 71.46450989 245.25495911 72.38320923 C245.26603951 73.82692398 245.26603951 73.82692398 245.27734375 75.29980469 C245.2854155 76.29523285 245.29348724 77.29066101 245.30180359 78.31625366 C245.31563982 80.42615012 245.32636404 82.53606892 245.33422852 84.64599609 C245.35138546 87.8526539 245.39526971 91.05826553 245.43945312 94.26464844 C245.44958542 96.3180263 245.45809984 98.3714129 245.46484375 100.42480469 C245.48235184 101.3751358 245.49985992 102.32546692 245.51789856 103.30459595 C245.48469254 113.64007051 241.59887267 120.46042157 234.57421875 127.85058594 C225.3777859 136.59357372 213.73039847 143.47619413 201.80932617 147.87084961 C201.09999435 148.13339035 200.39066254 148.39593109 199.65983582 148.66642761 C199.12498062 148.86255142 198.59012543 149.05867523 198.0390625 149.26074219 C198.03846541 149.81572333 198.03786832 150.37070446 198.03725314 150.94250321 C198.001377 183.81854044 197.94476554 216.69446859 197.86114155 249.57041796 C197.85112382 253.51585769 197.84127973 257.46129784 197.83154297 261.40673828 C197.82863091 262.58496195 197.82863091 262.58496195 197.82566002 263.78698811 C197.79461957 276.51363895 197.77765367 289.24027174 197.76586828 301.96695331 C197.75346729 315.02092745 197.72598977 328.07480673 197.68444943 341.128721 C197.65928376 349.18691222 197.64594745 357.24494619 197.64763293 365.30317727 C197.64766614 371.47713071 197.62674656 377.65084957 197.59789467 383.82473183 C197.58934994 386.36120294 197.58767646 388.89770757 197.59325981 391.43418694 C197.59985229 394.88822258 197.58209219 398.34128908 197.55804443 401.79522705 C197.56968506 403.3127291 197.56968506 403.3127291 197.58156085 404.86088777 C197.49769641 411.63077544 197.49769641 411.63077544 195.12991714 414.88309097 C192.84291368 416.38998344 191.68999171 416.76579923 188.9765625 416.77832031 C188.18894531 416.79092896 187.40132813 416.8035376 186.58984375 416.81652832 C185.32720703 416.80438293 185.32720703 416.80438293 184.0390625 416.79199219 C183.16636719 416.79581909 182.29367187 416.799646 181.39453125 416.80358887 C179.55207158 416.80630709 177.70957326 416.79895213 175.8671875 416.78222656 C173.04860316 416.76081466 170.23256765 416.7820302 167.4140625 416.80761719 C165.62239021 416.80497389 163.83071951 416.79984888 162.0390625 416.79199219 C161.19730469 416.80008911 160.35554688 416.80818604 159.48828125 416.81652832 C158.70066406 416.80391968 157.91304688 416.79131104 157.1015625 416.77832031 C156.41191406 416.77513794 155.72226562 416.77195557 155.01171875 416.76867676 C151.92310179 415.97339612 150.94234962 414.84513978 149.0390625 412.26074219 C148.43572919 408.95495494 148.51724204 405.67876048 148.55804443 402.32672119 C148.55462673 401.30649895 148.55120903 400.28627672 148.54768777 399.23513865 C148.54108333 395.80621558 148.56312804 392.37807007 148.58496094 388.94921875 C148.58608886 386.49545816 148.58545664 384.04169621 148.58319092 381.5879364 C148.58227916 376.29986771 148.59364645 371.01204245 148.61614227 365.72403717 C148.64864613 358.0785065 148.65906761 350.43307129 148.66409424 342.78747901 C148.67284945 330.38316758 148.6994711 317.97896134 148.73730469 305.57470703 C148.77401897 293.5249077 148.80233357 281.47513694 148.81933594 269.42529297 C148.82038683 268.68258196 148.82143773 267.93987096 148.82252046 267.17465356 C148.8277406 263.44870254 148.83279544 259.72275131 148.83776808 255.99679995 C148.87923713 225.08470419 148.94998893 194.17273916 149.0390625 163.26074219 C148.30109279 163.40447454 147.56312307 163.5482069 146.80279064 163.69629478 C143.41274084 164.35549588 140.02217279 165.01199384 136.6315918 165.66845703 C135.47094963 165.89456161 134.31030746 166.1206662 133.11449432 166.35362244 C123.72474899 168.1685228 114.33682847 169.67881191 104.8515625 170.88574219 C104.0739859 170.98680267 103.2964093 171.08786316 102.49526978 171.19198608 C89.76763677 172.83495751 77.02008935 174.07497037 64.2265625 175.07324219 C63.43134186 175.13658752 62.63612122 175.19993286 61.81680298 175.26519775 C59.50993214 175.44560531 57.20254081 175.61512776 54.89453125 175.78027344 C53.59153076 175.8741333 52.28853027 175.96799316 50.94604492 176.06469727 C46.37530195 176.30926598 41.80808005 176.28276009 37.2323761 176.272995 C36.44369471 176.2721105 35.65501332 176.271226 34.8424325 176.27031469 C32.90797456 176.26801756 30.97351814 176.26450185 29.0390625 176.26074219 C29.04274967 177.22595669 29.04643684 178.19117119 29.05023575 179.18563461 C29.13896951 202.65370691 29.20473484 226.12175749 29.24631119 249.58996201 C29.26695077 260.93894151 29.29509809 272.2878103 29.34082031 283.63671875 C29.38064528 293.52654411 29.40648515 303.41628932 29.41541648 313.30619264 C29.42063857 318.54455883 29.43294143 323.78269566 29.46198273 329.02098846 C29.48908322 333.94902465 29.49751836 338.87673646 29.49149323 343.80484009 C29.49259587 345.61569225 29.50058163 347.42655499 29.5158844 349.23734283 C29.53572875 351.70613565 29.5310226 354.17369695 29.52008057 356.64251709 C29.53173193 357.362364 29.5433833 358.08221092 29.55538774 358.82387137 C29.51428825 362.24449235 29.2645127 363.97172559 27.13228989 366.70513535 C24.82789044 368.41767722 23.80714986 368.76525861 20.9765625 368.77832031 C19.79513672 368.79723328 19.79513672 368.79723328 18.58984375 368.81652832 C17.32720703 368.80438293 17.32720703 368.80438293 16.0390625 368.79199219 C15.16636719 368.79581909 14.29367187 368.799646 13.39453125 368.80358887 C11.55207158 368.80630709 9.70957326 368.79895213 7.8671875 368.78222656 C5.04860316 368.76081466 2.23256765 368.7820302 -0.5859375 368.80761719 C-2.37760979 368.80497389 -4.16928049 368.79984888 -5.9609375 368.79199219 C-6.80269531 368.80008911 -7.64445313 368.80818604 -8.51171875 368.81652832 C-9.29933594 368.80391968 -10.08695313 368.79131104 -10.8984375 368.77832031 C-11.58808594 368.77513794 -12.27773437 368.77195557 -12.98828125 368.76867676 C-15.97725308 367.9990535 -17.06844222 366.68683248 -18.9609375 364.26074219 C-19.34550057 361.58214754 -19.48525606 359.31771663 -19.44195557 356.64251709 C-19.44537327 355.87139155 -19.44879097 355.100266 -19.45231223 354.30577302 C-19.45890521 351.71974752 -19.43689247 349.13475812 -19.41503906 346.54882812 C-19.41391089 344.69604517 -19.41454386 342.84326043 -19.41680908 340.99047852 C-19.41795833 335.95766184 -19.39441489 330.92522528 -19.36651325 325.89249706 C-19.3415347 320.63410041 -19.3391604 315.37569536 -19.33441162 310.11724854 C-19.32197142 300.15832755 -19.28913563 290.19958188 -19.24901366 280.24073815 C-19.20432848 268.90352187 -19.18231709 257.56629728 -19.16223192 246.22901487 C-19.12040396 222.90616006 -19.05003156 199.58346094 -18.9609375 176.26074219 C-20.13119634 176.26301661 -21.30145517 176.26529104 -22.5071764 176.26763439 C-24.05620124 176.26947383 -25.60522614 176.27125778 -27.1542511 176.272995 C-27.92395627 176.27463764 -28.69366143 176.27628028 -29.486691 176.2779727 C-34.61902357 176.28228929 -39.69518089 176.14917392 -44.81640625 175.78027344 C-45.55468658 175.72744705 -46.29296692 175.67462067 -47.05361938 175.62019348 C-49.41933015 175.44671502 -51.78386736 175.26159808 -54.1484375 175.07324219 C-54.97677094 175.00860779 -55.80510437 174.94397339 -56.65853882 174.87738037 C-69.40530841 173.8697294 -82.0939268 172.53367953 -94.7734375 170.88574219 C-95.86886368 170.74635727 -95.86886368 170.74635727 -96.98641968 170.60415649 C-106.91683737 169.32542747 -116.72621861 167.58290226 -126.5534668 165.66845703 C-127.75077171 165.4366423 -128.94807663 165.20482758 -130.18166351 164.96598816 C-133.10838941 164.39910701 -136.03480126 163.8306578 -138.9609375 163.26074219 C-138.95725033 164.54033436 -138.95356316 165.81992653 -138.94976425 167.13829422 C-138.86317243 197.49879803 -138.79719532 227.85926856 -138.75667618 258.21986617 C-138.75167323 261.95500865 -138.74649595 265.69015088 -138.74121094 269.42529297 C-138.7401617 270.16890681 -138.73911245 270.91252064 -138.73803142 271.67866823 C-138.72061613 283.72637849 -138.68907229 295.77401256 -138.65232632 307.8216776 C-138.61494809 320.17950777 -138.59270826 332.53729799 -138.58458352 344.89518237 C-138.57908924 352.5234958 -138.56172313 360.15159392 -138.52927163 367.7798411 C-138.50567031 373.62469874 -138.50310977 379.46944528 -138.50850677 385.31435204 C-138.50740309 387.71539577 -138.49940372 390.11644739 -138.4841156 392.5174427 C-138.46430888 395.78750633 -138.4689648 399.05663744 -138.47991943 402.32672119 C-138.46826807 403.28391595 -138.4566167 404.24111071 -138.44461226 405.22731137 C-138.50294775 411.6388562 -138.50294775 411.6388562 -140.86771011 414.84987259 C-143.15941445 416.39451891 -144.28779873 416.76569675 -147.0234375 416.77832031 C-148.20486328 416.79723328 -148.20486328 416.79723328 -149.41015625 416.81652832 C-150.67279297 416.80438293 -150.67279297 416.80438293 -151.9609375 416.79199219 C-152.83363281 416.79581909 -153.70632812 416.799646 -154.60546875 416.80358887 C-156.44792842 416.80630709 -158.29042674 416.79895213 -160.1328125 416.78222656 C-162.95139684 416.76081466 -165.76743235 416.7820302 -168.5859375 416.80761719 C-170.37760979 416.80497389 -172.16928049 416.79984888 -173.9609375 416.79199219 C-174.80269531 416.80008911 -175.64445312 416.80818604 -176.51171875 416.81652832 C-177.29933594 416.80391968 -178.08695313 416.79131104 -178.8984375 416.77832031 C-179.58808594 416.77513794 -180.27773437 416.77195557 -180.98828125 416.76867676 C-184.10084157 415.967231 -185.05221966 414.88250375 -186.9609375 412.26074219 C-187.57922913 408.78021822 -187.50697528 405.32229693 -187.47991943 401.79522705 C-187.48742069 400.71783508 -187.49492194 399.64044311 -187.5026505 398.5304029 C-187.52300461 394.90809577 -187.51480952 391.28640997 -187.50683594 387.6640625 C-187.51556671 385.07236611 -187.52605074 382.48067511 -187.53816223 379.88899231 C-187.56149152 374.30306517 -187.57022203 368.71726791 -187.56905365 363.13129425 C-187.56738545 355.05493444 -187.5877084 346.97874793 -187.61340895 338.90243432 C-187.65450797 325.79938523 -187.67780743 312.69636728 -187.68994141 299.59326172 C-187.70176689 286.86439012 -187.72195778 274.13557716 -187.75341797 261.40673828 C-187.75632212 260.22994487 -187.75632212 260.22994487 -187.75928494 259.02937785 C-187.76904941 255.09364929 -187.77897854 251.15792118 -187.78898954 247.22219324 C-187.87183538 214.56840135 -187.92580613 181.9146208 -187.9609375 149.26074219 C-188.47479004 149.03639999 -188.98864258 148.8120578 -189.51806641 148.58091736 C-191.87556741 147.54929511 -194.23075229 146.51248361 -196.5859375 145.47558594 C-197.79830078 144.94644592 -197.79830078 144.94644592 -199.03515625 144.40661621 C-213.3970122 138.06857155 -227.6558293 128.68558481 -234.10176086 113.83502197 C-235.57980787 109.40647216 -235.55152325 105.08462115 -235.52734375 100.45214844 C-235.53354233 99.44538559 -235.53974091 98.43862274 -235.54612732 97.40135193 C-235.55319185 95.28442342 -235.5501108 93.16743896 -235.53735352 91.05053711 C-235.5234884 87.83504699 -235.55761071 84.62247173 -235.59570312 81.40722656 C-235.59665454 79.33886648 -235.59479432 77.27050281 -235.58984375 75.20214844 C-235.60310196 74.25392715 -235.61636017 73.30570587 -235.63002014 72.32875061 C-235.5042816 63.18742254 -232.07208327 55.63339323 -225.5234375 49.19824219 C-172.80192077 -0.55963898 -67.63177261 -0.18518874 0 0 Z M-141.9609375 31.26074219 C-143.50225342 31.61821533 -143.50225342 31.61821533 -145.07470703 31.98291016 C-185.27694118 41.14116274 -185.27694118 41.14116274 -216.64453125 65.75292969 C-218.50925309 69.30530778 -218.82405124 72.40169645 -217.9609375 76.26074219 C-209.86489066 92.06730982 -187.24457014 99.89648862 -171.5078125 105.22167969 C-95.32760553 129.62128887 -10.76365709 131.96251442 206.28295898 94.83178711 C215.02600287 90.31381796 223.34882608 85.23519456 228.0390625 76.26074219 C228.79453627 71.14030889 228.52551709 68.39164341 225.5390625 64.13574219 C194.02889672 26.83060339 119.26835867 23.07233621 73.91851807 19.1020813 C2.35399725 13.10670394 -71.81334121 14.8778297 -141.9609375 31.26074219 Z M-218.9609375 100.26074219 C-218.68144868 108.08642903 -215.97451902 112.39617979 -210.3828125 117.78027344 C-152.92276697 164.75774309 -41.87913356 161.88982633 85.0390625 156.26074219 C160.8404834 149.41019907 160.8404834 149.41019907 225.0390625 113.26074219 C227.17945178 110.12713282 228.40570142 107.73440291 228.7265625 103.94824219 C228.8296875 102.73136719 228.9328125 101.51449219 229.0390625 100.26074219 C228.44222656 100.67324219 227.84539062 101.08574219 227.23046875 101.51074219 C202.91045193 117.69999558 173.40896692 125.61996737 145.0390625 131.26074219 C143.93949219 131.48068848 142.83992188 131.70063477 141.70703125 131.92724609 C123.64944779 135.47575911 105.47377063 138.10338269 87.17645264 140.03356934 C85.07666672 140.25674542 82.97808203 140.48940708 80.87939453 140.72265625 C30.77674239 146.16115206 -22.61797919 146.14261608 -72.70050049 140.51397705 C-75.07408485 140.24806638 -77.44875991 139.99393448 -79.82373047 139.74072266 C-126.62997513 134.68152437 -179.34289336 127.4064391 -218.9609375 100.26074219 Z M-170.9609375 155.26074219 C-170.9609375 236.11074219 -170.9609375 316.96074219 -170.9609375 400.26074219 C-165.6809375 400.26074219 -160.4009375 400.26074219 -154.9609375 400.26074219 C-154.9609375 320.73074219 -154.9609375 241.20074219 -154.9609375 159.26074219 C-162.83938562 156.45237751 -162.83938562 156.45237751 -170.9609375 155.26074219 Z M165.0390625 159.26074219 C165.0390625 238.79074219 165.0390625 318.32074219 165.0390625 400.26074219 C170.3190625 400.26074219 175.5990625 400.26074219 181.0390625 400.26074219 C181.0390625 319.41074219 181.0390625 238.56074219 181.0390625 155.26074219 C175.54158833 155.26074219 170.29343291 157.64401283 165.0390625 159.26074219 Z M-2.9609375 176.26074219 C-2.9609375 234.34074219 -2.9609375 292.42074219 -2.9609375 352.26074219 C2.3190625 352.26074219 7.5990625 352.26074219 13.0390625 352.26074219 C13.0390625 294.18074219 13.0390625 236.10074219 13.0390625 176.26074219 C7.7590625 176.26074219 2.4790625 176.26074219 -2.9609375 176.26074219 Z " fill="#000000" transform="translate(250.9609375,47.7392578125)"/>
</svg>
